<svg version="1.1" xmlns="http://www.w3.org/2000/svg" viewBox="0 0 1219.6732469045219 1046.103500543868" width="2439.3464938090437" height="2092.207001087736">
    <!-- svg-source:excalidraw -->

    <defs>
        <style class="style-fonts">
            @font-face {
            font-family: "Virgil";
            src: url("https://excalidraw.com/Virgil.woff2");
            }
            @font-face {
            font-family: "Cascadia";
            src: url("https://excalidraw.com/Cascadia.woff2");
            }
            @font-face {
            font-family: "Assistant";
            src: url("https://excalidraw.com/Assistant-Regular.woff2");
            }
        </style>

    </defs>
    <rect x="0" y="0" width="1219.6732469045219" height="1046.103500543868" fill="#ffffff"></rect><g stroke-linecap="round" transform="translate(10 10) rotate(0 76.57488810028863 33.18245151012525)"><path d="M1.63 1.95 L153.66 -0.52 L152.91 67.42 L1.67 65.58" stroke="none" stroke-width="0" fill="#ffec99"></path><path d="M0 0 C49.71 -0.07, 95.44 1.32, 153.15 0 M0 0 C57.72 -0.46, 115.78 -0.68, 153.15 0 M153.15 0 C154.16 21.13, 152.16 42.68, 153.15 66.36 M153.15 0 C152.91 16.42, 154.47 34.09, 153.15 66.36 M153.15 66.36 C101.21 65.72, 45.76 65.09, 0 66.36 M153.15 66.36 C119.21 66.61, 85.99 67.49, 0 66.36 M0 66.36 C-0.96 42.91, 0.56 18.93, 0 0 M0 66.36 C-0.94 52.86, -0.46 38.87, 0 0" stroke="#1e1e1e" stroke-width="2" fill="none"></path></g><g transform="translate(60.62490641083551 31.682451510125247) rotate(0 25.949981689453125 11.5)"><text x="25.949981689453125" y="18.400390625" font-family="Helvetica, Segoe UI Emoji" font-size="20px" fill="#000" text-anchor="middle" style="white-space: pre;" direction="ltr" dominant-baseline="alphabetic">사용자</text></g><g stroke-linecap="round" transform="translate(10 969.7385975236175) rotate(0 76.57488810028863 33.18245151012525)"><path d="M0.52 -0.52 L152.91 1.05 L154.82 65.58 L-1.19 64.44" stroke="none" stroke-width="0" fill="#ffec99"></path><path d="M0 0 C42.84 1.31, 88.51 0.81, 153.15 0 M0 0 C48.44 -0.09, 96.72 0.79, 153.15 0 M153.15 0 C152.11 13.41, 152.47 28.24, 153.15 66.36 M153.15 0 C153.47 21.18, 153.11 41, 153.15 66.36 M153.15 66.36 C115.94 66.41, 80.1 68.2, 0 66.36 M153.15 66.36 C102.55 66.88, 54.02 66.22, 0 66.36 M0 66.36 C0.91 43.28, -1.6 20.99, 0 0 M0 66.36 C0.33 52.62, 1.12 40.46, 0 0" stroke="#1e1e1e" stroke-width="2" fill="none"></path></g><g transform="translate(60.62490641083551 991.4210490337427) rotate(0 25.949981689453125 11.5)"><text x="25.949981689453125" y="18.400390625" font-family="Helvetica, Segoe UI Emoji" font-size="20px" fill="#000" text-anchor="middle" style="white-space: pre;" direction="ltr" dominant-baseline="alphabetic">사용자</text></g><g stroke-linecap="round" transform="translate(214.19970160076969 10) rotate(0 76.57488810028863 33.18245151012525)"><path d="M-0.24 1.05 L154.82 -0.79 L151.96 64.44 L-1.12 65.76" stroke="none" stroke-width="0" fill="#a5d8ff"></path><path d="M0 0 C45.1 -0.25, 87.4 -0.99, 153.15 0 M0 0 C42.6 1.12, 83.78 1.05, 153.15 0 M153.15 0 C151.81 20.84, 153.01 37.12, 153.15 66.36 M153.15 0 C154.15 16.21, 153.02 34.31, 153.15 66.36 M153.15 66.36 C102.61 67.71, 55.9 64.72, 0 66.36 M153.15 66.36 C109.98 67.56, 66.14 67.03, 0 66.36 M0 66.36 C-2.11 46.51, -2.15 22.83, 0 0 M0 66.36 C0.8 46.88, 0.24 25.19, 0 0" stroke="#1e1e1e" stroke-width="2" fill="none"></path></g><g transform="translate(241.31169907605832 31.682451510125247) rotate(0 49.462890625 11.5)"><text x="49.462890625" y="18.400390625" font-family="Helvetica, Segoe UI Emoji" font-size="20px" fill="#000" text-anchor="middle" style="white-space: pre;" direction="ltr" dominant-baseline="alphabetic">SQLParser</text></g><g stroke-linecap="round" transform="translate(214.19970160076969 969.7385975236175) rotate(0 76.57488810028863 33.18245151012525)"><path d="M1.67 -0.79 L151.96 -1.92 L152.03 65.76 L-0.32 64.94" stroke="none" stroke-width="0" fill="#a5d8ff"></path><path d="M0 0 C54.45 -0.6, 107.82 -0.08, 153.15 0 M0 0 C38.09 -0.3, 78.07 -1.3, 153.15 0 M153.15 0 C153.13 18.62, 151.94 41.85, 153.15 66.36 M153.15 0 C152.78 22.65, 153.64 43.55, 153.15 66.36 M153.15 66.36 C109.61 66.08, 64.76 66.08, 0 66.36 M153.15 66.36 C96.51 66.02, 39.03 66.78, 0 66.36 M0 66.36 C-1.32 44.47, 0.8 24.44, 0 0 M0 66.36 C-0.28 48.26, -0.66 31.19, 0 0" stroke="#1e1e1e" stroke-width="2" fill="none"></path></g><g transform="translate(241.31169907605832 991.4210490337427) rotate(0 49.462890625 11.5)"><text x="49.462890625" y="18.400390625" font-family="Helvetica, Segoe UI Emoji" font-size="20px" fill="#000" text-anchor="middle" style="white-space: pre;" direction="ltr" dominant-baseline="alphabetic">SQLParser</text></g><g stroke-linecap="round" transform="translate(435.75637783760476 10) rotate(0 76.57488810028863 33.18245151012525)"><path d="M-1.19 -1.92 L152.03 -0.61 L152.83 64.94 L-1.96 65.17" stroke="none" stroke-width="0" fill="#a5d8ff"></path><path d="M0 0 C49.84 0.49, 99.72 0.55, 153.15 0 M0 0 C52.45 -1.19, 105.11 -1.01, 153.15 0 M153.15 0 C152.34 26.64, 153.92 50.93, 153.15 66.36 M153.15 0 C152.9 14.56, 152.58 29.8, 153.15 66.36 M153.15 66.36 C95.14 63.78, 39.17 66.44, 0 66.36 M153.15 66.36 C106.28 65.97, 59.15 64.72, 0 66.36 M0 66.36 C0.81 41.69, 0.03 18.54, 0 0 M0 66.36 C-0.29 40.53, 0.67 13.24, 0 0" stroke="#1e1e1e" stroke-width="2" fill="none"></path></g><g transform="translate(466.7502112503934 31.682451510125247) rotate(0 45.5810546875 11.5)"><text x="45.5810546875" y="18.400390625" font-family="Helvetica, Segoe UI Emoji" font-size="20px" fill="#000" text-anchor="middle" style="white-space: pre;" direction="ltr" dominant-baseline="alphabetic">Statement</text></g><g stroke-linecap="round" transform="translate(435.75637783760476 969.7385975236175) rotate(0 76.57488810028863 33.18245151012525)"><path d="M-1.12 -0.61 L152.83 -1.42 L151.18 65.17 L0.76 65.43" stroke="none" stroke-width="0" fill="#a5d8ff"></path><path d="M0 0 C43.78 0.15, 90.22 -2.25, 153.15 0 M0 0 C51.5 0.52, 103.71 1.12, 153.15 0 M153.15 0 C153.53 15.86, 151.47 28.55, 153.15 66.36 M153.15 0 C153.15 22.41, 154.05 46.74, 153.15 66.36 M153.15 66.36 C119.84 66.44, 83.75 66.3, 0 66.36 M153.15 66.36 C114.34 65.88, 75.93 65.86, 0 66.36 M0 66.36 C-0.67 51.11, 1.89 33.11, 0 0 M0 66.36 C0.92 47.78, -0.51 29.01, 0 0" stroke="#1e1e1e" stroke-width="2" fill="none"></path></g><g transform="translate(466.7502112503934 991.4210490337427) rotate(0 45.5810546875 11.5)"><text x="45.5810546875" y="18.400390625" font-family="Helvetica, Segoe UI Emoji" font-size="20px" fill="#000" text-anchor="middle" style="white-space: pre;" direction="ltr" dominant-baseline="alphabetic">Statement</text></g><g stroke-linecap="round" transform="translate(639.3929392442764 10) rotate(0 97.42724735482133 33.18245151012525)"><path d="M-0.32 -1.42 L192.89 -1.19 L195.61 65.43 L1.55 66.58" stroke="none" stroke-width="0" fill="#a5d8ff"></path><path d="M0 0 C62.82 -2.39, 124.63 -0.59, 194.85 0 M0 0 C46.78 1.03, 91.26 0.44, 194.85 0 M194.85 0 C193.69 23.97, 196.08 50.99, 194.85 66.36 M194.85 0 C195.54 15.14, 194.04 29.64, 194.85 66.36 M194.85 66.36 C150.84 68.59, 105.61 67.95, 0 66.36 M194.85 66.36 C131.17 63.53, 65.58 64.59, 0 66.36 M0 66.36 C2.15 46.8, -0.31 25.97, 0 0 M0 66.36 C-1.15 42, -1.11 19.24, 0 0" stroke="#1e1e1e" stroke-width="2" fill="none"></path></g><g transform="translate(644.5447959740977 31.682451510125247) rotate(0 92.27539062499997 11.5)"><text x="92.275390625" y="18.400390625" font-family="Helvetica, Segoe UI Emoji" font-size="20px" fill="#000" text-anchor="middle" style="white-space: pre;" direction="ltr" dominant-baseline="alphabetic">CsvDataBaseEngine</text></g><g stroke-linecap="round" transform="translate(639.9560794383744 969.7385975236175) rotate(0 97.47899220622074 33.18245151012525)"><path d="M-1.96 -1.19 L195.71 -0.93 L196.51 66.58 L-0.02 67.41" stroke="none" stroke-width="0" fill="#a5d8ff"></path><path d="M0 0 C63.33 1.75, 123.93 1.99, 194.96 0 M0 0 C48.83 -0.73, 99.96 0.06, 194.96 0 M194.96 0 C195.5 23.32, 192.99 45.63, 194.96 66.36 M194.96 0 C194.74 14.25, 194.74 29.52, 194.96 66.36 M194.96 66.36 C123.9 67.82, 55.27 67.72, 0 66.36 M194.96 66.36 C154.58 64.55, 115.13 64.15, 0 66.36 M0 66.36 C-1.16 40.81, 0.41 17.42, 0 0 M0 66.36 C-0.17 48.76, 0.23 31.05, 0 0" stroke="#1e1e1e" stroke-width="2" fill="none"></path></g><g transform="translate(645.1596810195952 991.4210490337427) rotate(0 92.275390625 11.5)"><text x="92.275390625" y="18.400390625" font-family="Helvetica, Segoe UI Emoji" font-size="20px" fill="#000" text-anchor="middle" style="white-space: pre;" direction="ltr" dominant-baseline="alphabetic">CsvDataBaseEngine</text></g><g stroke-linecap="round" transform="translate(852.323769103175 10) rotate(0 76.5748881002886 33.18245151012525)"><path d="M0.76 -0.93 L154.7 0.21 L153.13 67.41 L-1.62 66.71" stroke="none" stroke-width="0" fill="#a5d8ff"></path><path d="M0 0 C29.53 0.2, 60.7 1.68, 153.15 0 M0 0 C48.92 1.03, 96.67 0, 153.15 0 M153.15 0 C151.97 15.22, 151.82 32.47, 153.15 66.36 M153.15 0 C151.93 22.34, 153.26 43.29, 153.15 66.36 M153.15 66.36 C99.73 67.01, 43.18 68.14, 0 66.36 M153.15 66.36 C122.16 66.18, 91.94 67.46, 0 66.36 M0 66.36 C1.23 46.42, -0.61 21.94, 0 0 M0 66.36 C0.21 52.12, -0.61 38.69, 0 0" stroke="#1e1e1e" stroke-width="2" fill="none"></path></g><g transform="translate(885.5441650159635 31.682451510125247) rotate(0 43.3544921875 11.5)"><text x="43.3544921875" y="18.400390625" font-family="Helvetica, Segoe UI Emoji" font-size="20px" fill="#000" text-anchor="middle" style="white-space: pre;" direction="ltr" dominant-baseline="alphabetic">ResultSet</text></g><g stroke-linecap="round" transform="translate(852.323769103175 969.7385975236175) rotate(0 76.5748881002886 33.18245151012525)"><path d="M1.55 0.21 L153.13 1.04 L151.53 66.71 L0.82 67.33" stroke="none" stroke-width="0" fill="#a5d8ff"></path><path d="M0 0 C43.64 1.49, 89.39 -1.54, 153.15 0 M0 0 C39.47 -1.21, 77.35 -0.02, 153.15 0 M153.15 0 C150.98 22.72, 153.16 40.91, 153.15 66.36 M153.15 0 C153.26 19.04, 153.19 37.48, 153.15 66.36 M153.15 66.36 C102.07 68.06, 52.85 65.7, 0 66.36 M153.15 66.36 C106.76 66.86, 58.99 65.63, 0 66.36 M0 66.36 C-1.14 46.08, -2.27 27.05, 0 0 M0 66.36 C-0.88 47.88, 0.48 30.12, 0 0" stroke="#1e1e1e" stroke-width="2" fill="none"></path></g><g transform="translate(885.5441650159635 991.4210490337427) rotate(0 43.3544921875 11.5)"><text x="43.3544921875" y="18.400390625" font-family="Helvetica, Segoe UI Emoji" font-size="20px" fill="#000" text-anchor="middle" style="white-space: pre;" direction="ltr" dominant-baseline="alphabetic">ResultSet</text></g><g stroke-linecap="round" transform="translate(1056.5234707039447 10) rotate(0 76.5748881002886 33.18245151012525)"><path d="M-0.02 1.04 L151.53 0.34 L153.97 67.33 L-1.98 66.26" stroke="none" stroke-width="0" fill="#a5d8ff"></path><path d="M0 0 C46.69 -2.67, 91.92 0.45, 153.15 0 M0 0 C50.45 1.56, 102.43 0.3, 153.15 0 M153.15 0 C153.11 17.63, 152.31 36.71, 153.15 66.36 M153.15 0 C154.07 24.32, 153.76 49.85, 153.15 66.36 M153.15 66.36 C102.77 66.56, 56.46 67.53, 0 66.36 M153.15 66.36 C112.21 67.6, 70.64 68.38, 0 66.36 M0 66.36 C-1.66 39.79, -0.35 15.12, 0 0 M0 66.36 C1.03 50.72, 1.43 36.11, 0 0" stroke="#1e1e1e" stroke-width="2" fill="none"></path></g><g transform="translate(1092.4585272612644 31.682451510125247) rotate(0 40.63983154296875 11.5)"><text x="40.63983154296875" y="18.400390625" font-family="Helvetica, Segoe UI Emoji" font-size="20px" fill="#000" text-anchor="middle" style="white-space: pre;" direction="ltr" dominant-baseline="alphabetic">CSV 파일</text></g><g stroke-linecap="round" transform="translate(1056.5234707039447 969.7385975236175) rotate(0 76.5748881002886 33.18245151012525)"><path d="M-1.62 0.34 L153.97 0.97 L151.17 66.26 L-1.72 66.64" stroke="none" stroke-width="0" fill="#a5d8ff"></path><path d="M0 0 C56.81 2.77, 116.11 2.06, 153.15 0 M0 0 C35.54 -1.53, 70.57 -1.6, 153.15 0 M153.15 0 C153.04 23.55, 154.78 51.22, 153.15 66.36 M153.15 0 C153.71 20.71, 153.66 39.85, 153.15 66.36 M153.15 66.36 C96.25 65.72, 38.41 67.29, 0 66.36 M153.15 66.36 C92.19 66.5, 32.31 65.58, 0 66.36 M0 66.36 C0.03 50.07, -0.79 32.45, 0 0 M0 66.36 C0.52 50.53, -0.26 35, 0 0" stroke="#1e1e1e" stroke-width="2" fill="none"></path></g><g transform="translate(1092.4585272612644 991.4210490337427) rotate(0 40.63983154296875 11.5)"><text x="40.63983154296875" y="18.400390625" font-family="Helvetica, Segoe UI Emoji" font-size="20px" fill="#000" text-anchor="middle" style="white-space: pre;" direction="ltr" dominant-baseline="alphabetic">CSV 파일</text></g><g stroke-linecap="round"><g transform="translate(86.57488810028863 76.3649030202505) rotate(0 0 446.6868472516835)"><path d="M0 0 C-1.35 201.54, -2.17 401.82, 0 893.37 M0 0 C0.64 312.51, 0.99 625.79, 0 893.37" stroke="#999" stroke-width="1" fill="none"></path></g></g><mask></mask><g stroke-linecap="round"><g transform="translate(290.7745897010583 76.3649030202505) rotate(0 0 446.6868472516835)"><path d="M0 0 C0.65 340.09, 1.61 681.41, 0 893.37 M0 0 C-0.13 200.53, -0.73 400.79, 0 893.37" stroke="#999" stroke-width="1" fill="none"></path></g></g><mask></mask><g stroke-linecap="round"><g transform="translate(512.3312659378935 76.3649030202505) rotate(0 0 446.6868472516835)"><path d="M0 0 C-2.07 308.97, -3.08 617.54, 0 893.37 M0 0 C2.46 193.68, 2.46 387.77, 0 893.37" stroke="#999" stroke-width="1" fill="none"></path></g></g><mask></mask><g stroke-linecap="round"><g transform="translate(717.5519660466671 76.3649030202505) rotate(0 0 446.6868472516835)"><path d="M0 0 C1.19 208.12, 1.13 417.05, 0 893.37 M0 0 C-2.9 291.17, -2.37 581.79, 0 893.37" stroke="#999" stroke-width="1" fill="none"></path></g></g><mask></mask><g stroke-linecap="round"><g transform="translate(928.8986572034637 76.3649030202505) rotate(0 0 446.6868472516835)"><path d="M0 0 C-3.37 285.76, -2.5 569.71, 0 893.37 M0 0 C-2.38 255.36, -2.41 510.47, 0 893.37" stroke="#999" stroke-width="1" fill="none"></path></g></g><mask></mask><g stroke-linecap="round"><g transform="translate(1133.0983588042332 76.3649030202505) rotate(0 0 446.6868472516835)"><path d="M0 0 C-2.77 256.4, -3.08 513.37, 0 893.37 M0 0 C2.35 333.28, 2.22 667.04, 0 893.37" stroke="#999" stroke-width="1" fill="none"></path></g></g><mask></mask><g mask="url(#mask-83FjjGxkac87kZBX8MCP2)" stroke-linecap="round"><g transform="translate(88.1063858622944 117.2048433404043) rotate(0 99.03685527637327 0)"><path d="M-0.88 -0.17 C31.84 -0.08, 163.92 0.84, 197.19 0.88 M0.87 -1.31 C33.87 -1.57, 166.52 -1.24, 199.44 -0.78" stroke="#1e1e1e" stroke-width="2" fill="none"></path></g><g transform="translate(88.1063858622944 117.2048433404043) rotate(0 99.03685527637327 0)"><path d="M175.89 7.6 C184.46 3.15, 195.09 2.65, 199.44 -0.78 M175.89 7.6 C183.3 5.44, 190.49 1.6, 199.44 -0.78" stroke="#1e1e1e" stroke-width="2" fill="none"></path></g><g transform="translate(88.1063858622944 117.2048433404043) rotate(0 99.03685527637327 0)"><path d="M176.01 -9.5 C184.58 -7.51, 195.16 -1.56, 199.44 -0.78 M176.01 -9.5 C183.47 -6.41, 190.63 -4.99, 199.44 -0.78" stroke="#1e1e1e" stroke-width="2" fill="none"></path></g></g><mask id="mask-83FjjGxkac87kZBX8MCP2"><rect x="0" y="0" fill="#fff" width="386.18009641504096" height="217.2048433404043"></rect><rect x="135.62685319921457" y="105.7048433404043" fill="#000" width="103.03277587890625" height="23" opacity="1"></rect></mask><g transform="translate(135.62685319921457 105.7048433404043) rotate(0 51.76366257276388 11.240477563273998)"><text x="51.516387939453125" y="18.400390625" font-family="Helvetica, Segoe UI Emoji" font-size="20px" fill="#1e1e1e" text-anchor="middle" style="white-space: pre;" direction="ltr" dominant-baseline="alphabetic">SQL 문 전달</text></g><g mask="url(#mask-C5MnP1YTKYvW-0gzBoGsM)" stroke-linecap="round"><g transform="translate(291.28508895506025 167.74426948659493) rotate(0 34.67423400268591 11.12966707574651)"><path d="M-0.88 0.88 C9.68 -0.69, 51.94 -14.56, 62.49 -9.61 C73.04 -4.66, 72.61 25.36, 62.4 30.59 C52.2 35.83, 11.47 23.52, 1.27 21.81 M0.86 0.3 C11.4 -1.05, 51.73 -13.25, 61.92 -8.03 C72.1 -2.8, 72.01 26.44, 61.97 31.62 C51.93 36.81, 12.01 25.03, 1.65 23.1" stroke="#1e1e1e" stroke-width="2" fill="none"></path></g><g transform="translate(291.28508895506025 167.74426948659493) rotate(0 34.67423400268591 11.12966707574651)"><path d="M26.48 20.12 C22.3 21.82, 15.35 22.35, 1.65 23.1 M26.48 20.12 C20.33 20.01, 14.58 20.74, 1.65 23.1" stroke="#1e1e1e" stroke-width="2" fill="none"></path></g><g transform="translate(291.28508895506025 167.74426948659493) rotate(0 34.67423400268591 11.12966707574651)"><path d="M22.58 36.78 C19.32 34.72, 13.25 31.47, 1.65 23.1 M22.58 36.78 C17.39 32.41, 12.63 28.91, 1.65 23.1" stroke="#1e1e1e" stroke-width="2" fill="none"></path></g></g><mask id="mask-C5MnP1YTKYvW-0gzBoGsM"><rect x="0" y="0" fill="#fff" width="453.0554986892931" height="308.58420980674885"></rect><rect x="320.72471480906074" y="168.47788129883975" fill="#000" width="80.1761474609375" height="23" opacity="1"></rect></mask><g transform="translate(320.72471480906074 168.47788129883975) rotate(0 5.23460814868541 10.396055263501694)"><text x="40.08807373046875" y="18.400390625" font-family="Helvetica, Segoe UI Emoji" font-size="20px" fill="#1e1e1e" text-anchor="middle" style="white-space: pre;" direction="ltr" dominant-baseline="alphabetic">SQL 파싱</text></g><g mask="url(#mask-9xZkanoZAgtxo2v8dbODL)" stroke-linecap="round"><g transform="translate(292.3060874630641 249.93464938090437) rotate(0 107.71534259440602 0)"><path d="M0.72 0.09 C36.88 -0.15, 180.24 -0.59, 216.06 -0.55 M-0.36 -0.91 C35.77 -1.07, 179.55 0.85, 215.45 0.7" stroke="#1e1e1e" stroke-width="2" fill="none"></path></g><g transform="translate(292.3060874630641 249.93464938090437) rotate(0 107.71534259440602 0)"><path d="M191.91 9.12 C197.33 8.13, 201.61 5.59, 215.45 0.7 M191.91 9.12 C200.4 5.59, 207 3.86, 215.45 0.7" stroke="#1e1e1e" stroke-width="2" fill="none"></path></g><g transform="translate(292.3060874630641 249.93464938090437) rotate(0 107.71534259440602 0)"><path d="M192.01 -7.98 C197.53 -5.09, 201.79 -3.76, 215.45 0.7 M192.01 -7.98 C200.49 -5.86, 207.06 -1.93, 215.45 0.7" stroke="#1e1e1e" stroke-width="2" fill="none"></path></g></g><mask id="mask-9xZkanoZAgtxo2v8dbODL"><rect x="0" y="0" fill="#fff" width="607.7367726518762" height="349.9346493809044"></rect><rect x="305.63376526254825" y="238.43464938090437" fill="#000" width="188.77532958984375" height="23" opacity="1"></rect></mask><g transform="translate(305.63376526254825 238.43464938090437) rotate(0 94.52222305532543 11.39638814296677)"><text x="94.38766479492188" y="18.400390625" font-family="Helvetica, Segoe UI Emoji" font-size="20px" fill="#1e1e1e" text-anchor="middle" style="white-space: pre;" direction="ltr" dominant-baseline="alphabetic">적절한 Statement 생성</text></g><g mask="url(#mask-R0PTtxQ2MsD4ERawGLSdz)" stroke-linecap="round"><g transform="translate(513.8627636998992 300.98457478109685) rotate(0 99.54735453037523 0)"><path d="M0.63 -0.55 C33.74 -0.5, 166.24 0.47, 199.35 0.37 M-0.49 1.78 C32.41 1.45, 165.35 -1.2, 198.53 -1.56" stroke="#1e1e1e" stroke-width="2" fill="none"></path></g><g transform="translate(513.8627636998992 300.98457478109685) rotate(0 99.54735453037523 0)"><path d="M175.18 7.36 C182.67 4.45, 192.59 1.14, 198.53 -1.56 M175.18 7.36 C179.44 5.84, 184.71 3.62, 198.53 -1.56" stroke="#1e1e1e" stroke-width="2" fill="none"></path></g><g transform="translate(513.8627636998992 300.98457478109685) rotate(0 99.54735453037523 0)"><path d="M174.91 -9.74 C182.5 -6.5, 192.53 -3.66, 198.53 -1.56 M174.91 -9.74 C179.35 -7.75, 184.67 -6.47, 198.53 -1.56" stroke="#1e1e1e" stroke-width="2" fill="none"></path></g></g><mask id="mask-R0PTtxQ2MsD4ERawGLSdz"><rect x="0" y="0" fill="#fff" width="812.9574727606497" height="400.98457478109685"></rect><rect x="541.6962510427745" y="289.48457478109685" fill="#000" width="143.427734375" height="23" opacity="1"></rect></mask><g transform="translate(541.6962510427743 289.48457478109685) rotate(0 71.59401559602466 11.608755869567176)"><text x="71.7138671875" y="18.400390625" font-family="Helvetica, Segoe UI Emoji" font-size="20px" fill="#1e1e1e" text-anchor="middle" style="white-space: pre;" direction="ltr" dominant-baseline="alphabetic">execute(engine)</text></g><g mask="url(#mask-7cj0YOcI69BsK1J6BMHEa)" stroke-linecap="round"><g transform="translate(719.0834638086728 397.97943304146247) rotate(0 204.71020085477164 0)"><path d="M0.25 0.37 C68.42 0.27, 341.28 -0.89, 409.62 -1.14 M-1.07 -0.49 C66.89 -0.43, 340.26 -0.21, 408.77 -0.2" stroke="#1e1e1e" stroke-width="2" fill="none"></path></g><g transform="translate(719.0834638086728 397.97943304146247) rotate(0 204.71020085477164 0)"><path d="M385.27 8.33 C394.21 5.6, 399.99 3.71, 408.77 -0.2 M385.27 8.33 C390.09 6.28, 395.64 5.83, 408.77 -0.2" stroke="#1e1e1e" stroke-width="2" fill="none"></path></g><g transform="translate(719.0834638086728 397.97943304146247) rotate(0 204.71020085477164 0)"><path d="M385.28 -8.77 C394.14 -5.47, 399.91 -1.32, 408.77 -0.2 M385.28 -8.77 C390.02 -7.36, 395.57 -4.35, 408.77 -0.2" stroke="#1e1e1e" stroke-width="2" fill="none"></path></g></g><mask id="mask-7cj0YOcI69BsK1J6BMHEa"><rect x="0" y="0" fill="#fff" width="1228.5038655182161" height="497.97943304146247"></rect><rect x="820.3087708646165" y="386.47943304146247" fill="#000" width="206.96978759765625" height="23" opacity="1"></rect></mask><g transform="translate(820.3087708646161 386.47943304146247) rotate(0 103.04568651940667 11.112001674249768)"><text x="103.48489379882812" y="18.400390625" font-family="Helvetica, Segoe UI Emoji" font-size="20px" fill="#1e1e1e" text-anchor="middle" style="white-space: pre;" direction="ltr" dominant-baseline="alphabetic">테이블 이름으로 파일 생성</text></g><g mask="url(#mask-5102A-hury9NTLJKuQypU)" stroke-linecap="round"><g transform="translate(719.0834638086728 449.02935844165495) rotate(0 204.71020085477164 0)"><path d="M0.19 -1.14 C68.53 -1.4, 342.18 -1.38, 410.29 -1.17 M-1.16 0.87 C67.07 0.69, 341.64 -0.35, 409.8 -0.25" stroke="#1e1e1e" stroke-width="2" fill="none"></path></g><g transform="translate(719.0834638086728 449.02935844165495) rotate(0 204.71020085477164 0)"><path d="M386.32 8.34 C391.93 7, 399.42 1.88, 409.8 -0.25 M386.32 8.34 C394.37 6.74, 401.05 2.86, 409.8 -0.25" stroke="#1e1e1e" stroke-width="2" fill="none"></path></g><g transform="translate(719.0834638086728 449.02935844165495) rotate(0 204.71020085477164 0)"><path d="M386.3 -8.76 C391.96 -4.61, 399.47 -4.24, 409.8 -0.25 M386.3 -8.76 C394.36 -5.09, 401.05 -3.7, 409.8 -0.25" stroke="#1e1e1e" stroke-width="2" fill="none"></path></g></g><mask id="mask-5102A-hury9NTLJKuQypU"><rect x="0" y="0" fill="#fff" width="1228.5038655182161" height="549.029358441655"></rect><rect x="834.8304383450852" y="437.52935844165495" fill="#000" width="177.92645263671875" height="23" opacity="1"></rect></mask><g transform="translate(834.8304383450849 437.52935844165495) rotate(0 88.81756434720006 11.271056371127088)"><text x="88.96322631835938" y="18.400390625" font-family="Helvetica, Segoe UI Emoji" font-size="20px" fill="#1e1e1e" text-anchor="middle" style="white-space: pre;" direction="ltr" dominant-baseline="alphabetic">컬럼 정보 첫 줄에 추가</text></g><g mask="url(#mask-6qJTn0d30KIPnvWUgHtDV)" stroke-linecap="round"><g transform="translate(719.0834638086728 546.0242167020206) rotate(0 204.71020085477164 0)"><path d="M0.87 -1.17 C68.98 -0.96, 340.78 -0.03, 408.87 0.1 M-0.13 0.83 C67.76 1.35, 339.5 1.7, 407.64 1.69" stroke="#1e1e1e" stroke-width="2" fill="none"></path></g><g transform="translate(719.0834638086728 546.0242167020206) rotate(0 204.71020085477164 0)"><path d="M384.14 10.22 C389.7 6.44, 399.25 4.7, 407.64 1.69 M384.14 10.22 C390.65 7.44, 396.59 5.93, 407.64 1.69" stroke="#1e1e1e" stroke-width="2" fill="none"></path></g><g transform="translate(719.0834638086728 546.0242167020206) rotate(0 204.71020085477164 0)"><path d="M384.15 -6.88 C389.55 -5.25, 399.09 -1.58, 407.64 1.69 M384.15 -6.88 C390.8 -5.06, 396.73 -1.97, 407.64 1.69" stroke="#1e1e1e" stroke-width="2" fill="none"></path></g></g><mask id="mask-6qJTn0d30KIPnvWUgHtDV"><rect x="0" y="0" fill="#fff" width="1228.5038655182161" height="646.0242167020206"></rect><rect x="828.9587647611008" y="534.5242167020206" fill="#000" width="189.6697998046875" height="23" opacity="1"></rect></mask><g transform="translate(828.9587647611005 534.5242167020206) rotate(0 94.49586993511764 11.759235989939953)"><text x="94.83489990234375" y="18.400390625" font-family="Helvetica, Segoe UI Emoji" font-size="20px" fill="#1e1e1e" text-anchor="middle" style="white-space: pre;" direction="ltr" dominant-baseline="alphabetic">레코드를 파일 끝에 추가</text></g><g mask="url(#mask-p1pj65AmNatPS1WyLdZtX)" stroke-linecap="round"><g transform="translate(719.0834638086728 643.0190749623862) rotate(0 204.71020085477164 0)"><path d="M-0.55 0.1 C67.55 0.23, 340.96 -0.55, 409.45 -0.37 M1.37 -0.89 C69.23 -0.49, 340.39 0.91, 408.52 0.97" stroke="#1e1e1e" stroke-width="2" fill="none"></path></g><g transform="translate(719.0834638086728 643.0190749623862) rotate(0 204.71020085477164 0)"><path d="M385 9.44 C394.01 6.44, 401.99 4.86, 408.52 0.97 M385 9.44 C394.2 6.66, 404.5 2.38, 408.52 0.97" stroke="#1e1e1e" stroke-width="2" fill="none"></path></g><g transform="translate(719.0834638086728 643.0190749623862) rotate(0 204.71020085477164 0)"><path d="M385.05 -7.66 C393.88 -4.29, 401.84 0.51, 408.52 0.97 M385.05 -7.66 C394.28 -3.64, 404.56 -1.14, 408.52 0.97" stroke="#1e1e1e" stroke-width="2" fill="none"></path></g></g><mask id="mask-p1pj65AmNatPS1WyLdZtX"><rect x="0" y="0" fill="#fff" width="1228.5038655182161" height="743.0190749623862"></rect><rect x="857.687066763054" y="631.5190749623862" fill="#000" width="132.21319580078125" height="23" opacity="1"></rect></mask><g transform="translate(857.6870667630536 631.5190749623862) rotate(0 65.84817904345687 11.537530005872213)"><text x="66.10659790039062" y="18.400390625" font-family="Helvetica, Segoe UI Emoji" font-size="20px" fill="#1e1e1e" text-anchor="middle" style="white-space: pre;" direction="ltr" dominant-baseline="alphabetic">모든 데이터 읽기</text></g><g mask="url(#mask-8rDDmaPDI0ghJw0fHqB9o)" stroke-linecap="round"><g transform="translate(718.0624653006689 693.5585011085768) rotate(0 34.376990753393954 10.741713951820202)"><path d="M0.03 -0.37 C10.58 -1.81, 52.41 -13.73, 62.75 -8.53 C73.09 -3.33, 72.39 25.73, 62.08 30.83 C51.77 35.93, 10.88 23.72, 0.87 22.07 M-1.41 -1.61 C9.11 -3.36, 51.83 -15.64, 62.31 -10.04 C72.79 -4.44, 71.69 27, 61.48 31.99 C51.26 36.97, 11.11 21.66, 1.04 19.85" stroke="#1e1e1e" stroke-width="2" fill="none"></path></g><g transform="translate(718.0624653006689 693.5585011085768) rotate(0 34.376990753393954 10.741713951820202)"><path d="M25.97 17.96 C19.01 20.07, 15.24 19.44, 1.04 19.85 M25.97 17.96 C19.97 18.21, 11.71 18.17, 1.04 19.85" stroke="#1e1e1e" stroke-width="2" fill="none"></path></g><g transform="translate(718.0624653006689 693.5585011085768) rotate(0 34.376990753393954 10.741713951820202)"><path d="M21.36 34.42 C15.56 32.35, 12.95 27.53, 1.04 19.85 M21.36 34.42 C16.64 30.14, 9.64 25.58, 1.04 19.85" stroke="#1e1e1e" stroke-width="2" fill="none"></path></g></g><mask id="mask-8rDDmaPDI0ghJw0fHqB9o"><rect x="0" y="0" fill="#fff" width="879.8328750349017" height="834.3984414287307"></rect><rect x="710.82996148558" y="693.7341774626784" fill="#000" width="154.756591796875" height="23" opacity="1"></rect></mask><g transform="translate(710.82996148558 693.7341774626784) rotate(0 41.60949456848283 10.566037597718605)"><text x="77.3782958984375" y="18.400390625" font-family="Helvetica, Segoe UI Emoji" font-size="20px" fill="#1e1e1e" text-anchor="middle" style="white-space: pre;" direction="ltr" dominant-baseline="alphabetic">WHERE 조건 확인</text></g><g mask="url(#mask-bZ2IV9P7frn3-DFySrlbB)" stroke-linecap="round"><g transform="translate(719.0834638086728 775.7488810028863) rotate(0 102.61035005438674 0)"><path d="M0.98 1.17 C35.23 1.18, 171.51 -0.22, 205.53 -0.31 M0.03 0.73 C34.15 0.95, 170.71 1.42, 204.74 1.07" stroke="#1e1e1e" stroke-width="2" fill="none"></path></g><g transform="translate(719.0834638086728 775.7488810028863) rotate(0 102.61035005438674 0)"><path d="M181.27 9.67 C190.34 7.39, 194.98 4.03, 204.74 1.07 M181.27 9.67 C188.89 5.77, 197.2 3.39, 204.74 1.07" stroke="#1e1e1e" stroke-width="2" fill="none"></path></g><g transform="translate(719.0834638086728 775.7488810028863) rotate(0 102.61035005438674 0)"><path d="M181.23 -7.43 C190.26 -4.54, 194.92 -2.73, 204.74 1.07 M181.23 -7.43 C189 -5.3, 197.33 -1.65, 204.74 1.07" stroke="#1e1e1e" stroke-width="2" fill="none"></path></g></g><mask id="mask-bZ2IV9P7frn3-DFySrlbB"><rect x="0" y="0" fill="#fff" width="1024.3041639174462" height="875.7488810028863"></rect><rect x="735.5089078572003" y="764.2488810028863" fill="#000" width="172.36981201171875" height="23" opacity="1"></rect></mask><g transform="translate(735.5089078572003 764.2488810028863) rotate(0 86.3545134769007 11.941659908523434)"><text x="86.18490600585938" y="18.400390625" font-family="Helvetica, Segoe UI Emoji" font-size="20px" fill="#1e1e1e" text-anchor="middle" style="white-space: pre;" direction="ltr" dominant-baseline="alphabetic">조건에 맞는 결과 추가</text></g><g mask="url(#mask-OfhD6V4bvTSVg-JUiNvbB)" stroke-linecap="round"><g transform="translate(716.0204682846613 837.0087914831174) rotate(0 -99.54735453037523 0)"><path d="M0.31 -0.31 C-33.06 -0.4, -166.17 0.66, -199.24 0.63" stroke="#1e1e1e" stroke-width="2.5" fill="none" stroke-dasharray="1.5 8"></path></g><g transform="translate(716.0204682846613 837.0087914831174) rotate(0 -99.54735453037523 0)"><path d="M-175.78 -8.01 C-185.16 -4.9, -192.54 0.32, -199.24 0.63" stroke="#1e1e1e" stroke-width="2.5" fill="none" stroke-dasharray="1.5 6"></path></g><g transform="translate(716.0204682846613 837.0087914831174) rotate(0 -99.54735453037523 0)"><path d="M-175.71 9.09 C-185.29 5.68, -192.69 4.37, -199.24 0.63" stroke="#1e1e1e" stroke-width="2.5" fill="none" stroke-dasharray="1.5 6"></path></g></g><mask id="mask-OfhD6V4bvTSVg-JUiNvbB"><rect x="0" y="0" fill="#fff" width="1015.1151773454118" height="937.0087914831174"></rect><rect x="579.0948178558485" y="825.5087914831174" fill="#000" width="74.756591796875" height="23" opacity="1"></rect></mask><g transform="translate(579.0948178558485 825.5087914831174) rotate(0 37.45941627137364 11.659114761516776)"><text x="37.3782958984375" y="18.400390625" font-family="Helvetica, Segoe UI Emoji" font-size="20px" fill="#1e1e1e" text-anchor="middle" style="white-space: pre;" direction="ltr" dominant-baseline="alphabetic">실행 결과</text></g><g mask="url(#mask-MhqHzfjSRMuSv4wobjwB0)" stroke-linecap="round"><g transform="translate(510.79976817588766 888.0587168833099) rotate(0 -107.71534259440601 0)"><path d="M-0.15 0.63 C-35.94 0.61, -178.43 -0.17, -214.43 -0.47" stroke="#1e1e1e" stroke-width="2.5" fill="none" stroke-dasharray="1.5 8"></path></g><g transform="translate(510.79976817588766 888.0587168833099) rotate(0 -107.71534259440601 0)"><path d="M-190.88 -8.87 C-197.52 -4.49, -207.03 -4.61, -214.43 -0.47" stroke="#1e1e1e" stroke-width="2.5" fill="none" stroke-dasharray="1.5 6"></path></g><g transform="translate(510.79976817588766 888.0587168833099) rotate(0 -107.71534259440601 0)"><path d="M-190.99 8.23 C-197.55 7.04, -207.02 1.35, -214.43 -0.47" stroke="#1e1e1e" stroke-width="2.5" fill="none" stroke-dasharray="1.5 6"></path></g></g><mask id="mask-MhqHzfjSRMuSv4wobjwB0"><rect x="0" y="0" fill="#fff" width="826.2304533646998" height="988.0587168833099"></rect><rect x="365.7061296830441" y="876.5587168833099" fill="#000" width="74.756591796875" height="23" opacity="1"></rect></mask><g transform="translate(365.7061296830442 876.5587168833099) rotate(0 37.80675357691945 11.58059800155479)"><text x="37.3782958984375" y="18.400390625" font-family="Helvetica, Segoe UI Emoji" font-size="20px" fill="#1e1e1e" text-anchor="middle" style="white-space: pre;" direction="ltr" dominant-baseline="alphabetic">결과 반환</text></g><g mask="url(#mask-dVR2F7NJqsgurkpcegylH)" stroke-linecap="round"><g transform="translate(289.24309193905253 939.1086422835024) rotate(0 -99.03685527637329 0)"><path d="M1 -0.47 C-32.1 -0.77, -165.49 -1.17, -198.79 -1.15" stroke="#1e1e1e" stroke-width="2.5" fill="none" stroke-dasharray="1.5 8"></path></g><g transform="translate(289.24309193905253 939.1086422835024) rotate(0 -99.03685527637329 0)"><path d="M-175.28 -9.66 C-182.78 -8.2, -190.68 -5.69, -198.79 -1.15" stroke="#1e1e1e" stroke-width="2.5" fill="none" stroke-dasharray="1.5 6"></path></g><g transform="translate(289.24309193905253 939.1086422835024) rotate(0 -99.03685527637329 0)"><path d="M-175.31 7.44 C-182.89 3.98, -190.78 1.57, -198.79 -1.15" stroke="#1e1e1e" stroke-width="2.5" fill="none" stroke-dasharray="1.5 6"></path></g></g><mask id="mask-dVR2F7NJqsgurkpcegylH"><rect x="0" y="0" fill="#fff" width="587.3168024917991" height="1039.1086422835024"></rect><rect x="132.749632658773" y="927.6086422835024" fill="#000" width="114.9132080078125" height="23" opacity="1"></rect></mask><g transform="translate(132.749632658773 927.6086422835024) rotate(0 57.60273704640568 10.687810494681798)"><text x="57.45660400390625" y="18.400390625" font-family="Helvetica, Segoe UI Emoji" font-size="20px" fill="#1e1e1e" text-anchor="middle" style="white-space: pre;" direction="ltr" dominant-baseline="alphabetic">최종 결과 제공</text></g><g stroke-linecap="round"><g transform="translate(631.7880913743437 321.4045449411742) rotate(0 256.27062550896596 0)"><path d="M0 0 C195.87 0.77, 393.03 1.09, 512.54 0" stroke="#adb5bd" stroke-width="2.5" fill="none" stroke-dasharray="1.5 8"></path></g></g><mask></mask><g stroke-linecap="round"><g transform="translate(1144.3293423922755 321.4045449411742) rotate(0 0 237.3821531108947)"><path d="M0 0 C-2.28 114.14, -2.64 227.69, 0 474.76" stroke="#adb5bd" stroke-width="2.5" fill="none" stroke-dasharray="1.5 8"></path></g></g><mask></mask><g stroke-linecap="round"><g transform="translate(631.7880913743437 796.1688511629636) rotate(0 256.27062550896596 0)"><path d="M0 0 C124.56 -0.46, 249.79 0.63, 512.54 0" stroke="#adb5bd" stroke-width="2.5" fill="none" stroke-dasharray="1.5 8"></path></g></g><mask></mask><g stroke-linecap="round"><g transform="translate(631.7880913743437 321.4045449411742) rotate(0 0 237.3821531108947)"><path d="M0 0 C-2.02 135.14, -1.91 270.3, 0 474.76" stroke="#adb5bd" stroke-width="2.5" fill="none" stroke-dasharray="1.5 8"></path></g></g><mask></mask><g stroke-linecap="round"><g transform="translate(631.7880913743437 474.55432114175164) rotate(0 256.27062550896596 0)"><path d="M0 0 C103.03 -0.15, 206.9 -0.78, 512.54 0" stroke="#adb5bd" stroke-width="2.5" fill="none" stroke-dasharray="1.5 8"></path></g></g><mask></mask><g stroke-linecap="round"><g transform="translate(631.7880913743437 571.5491794021164) rotate(0 256.27062550896596 0)"><path d="M0 0 C173.2 -1.6, 346.65 -2.24, 512.54 0" stroke="#adb5bd" stroke-width="2.5" fill="none" stroke-dasharray="1.5 8"></path></g></g><mask></mask><g transform="translate(825.5878506989065 327.2825180852433) rotate(0 105.05859375 11.5)"><text x="0" y="18.400390625" font-family="Helvetica, Segoe UI Emoji" font-size="20px" fill="#1e1e1e" text-anchor="start" style="white-space: pre;" direction="ltr" dominant-baseline="alphabetic">[CreateTableStatement]</text></g><g transform="translate(823.0791475625333 480.4322942858207) rotate(0 76.1474609375 11.5)"><text x="0" y="18.400390625" font-family="Helvetica, Segoe UI Emoji" font-size="20px" fill="#1e1e1e" text-anchor="start" style="white-space: pre;" direction="ltr" dominant-baseline="alphabetic">[InsertStatement]</text></g><g transform="translate(821.4595961572286 577.4271525461863) rotate(0 78.9306640625 11.5)"><text x="0" y="18.400390625" font-family="Helvetica, Segoe UI Emoji" font-size="20px" fill="#1e1e1e" text-anchor="start" style="white-space: pre;" direction="ltr" dominant-baseline="alphabetic">[SelectStatement]</text></g><g stroke-linecap="round" transform="translate(631.7880913743437 321.4045449411742) rotate(0 17.356974636065416 30)"><path d="M0.97 0.58 L32.95 -0.3 L34.22 59.86 L-0.81 60.76" stroke="none" stroke-width="0" fill="#e9ecef"></path><path d="M0 0 C11.73 -1.38, 23.96 0.81, 34.71 0 M0 0 C12.19 0.05, 26.47 -0.1, 34.71 0 M34.71 0 C35.87 14.38, 35.66 28.99, 34.71 60 M34.71 0 C34 24.06, 34.83 46.76, 34.71 60 M34.71 60 C23.08 58.93, 12.42 60.92, 0 60 M34.71 60 C22.69 59.42, 12.16 59.73, 0 60 M0 60 C-0.96 47.01, -1.21 33.75, 0 0 M0 60 C-0.48 40.04, -1.34 22.04, 0 0" stroke="#adb5bd" stroke-width="2" fill="none"></path></g><g transform="translate(638.5835425729092 339.9045449411742) rotate(0 10.5615234375 11.5)"><text x="10.5615234375" y="18.400390625" font-family="Helvetica, Segoe UI Emoji" font-size="20px" fill="#000" text-anchor="middle" style="white-space: pre;" direction="ltr" dominant-baseline="alphabetic">alt</text></g></svg>
