<svg version="1.1" xmlns="http://www.w3.org/2000/svg" viewBox="0 0 1968.7604222788386 976.8213691507849" width="3937.5208445576773" height="1953.6427383015698">
    <!-- svg-source:excalidraw -->

    <defs>
        <style class="style-fonts">
            @font-face {
            font-family: "Virgil";
            src: url("https://excalidraw.com/Virgil.woff2");
            }
            @font-face {
            font-family: "Cascadia";
            src: url("https://excalidraw.com/Cascadia.woff2");
            }
            @font-face {
            font-family: "Assistant";
            src: url("https://excalidraw.com/Assistant-Regular.woff2");
            }
        </style>

    </defs>
    <rect x="0" y="0" width="1968.7604222788386" height="976.8213691507849" fill="#ffffff"></rect><g stroke-linecap="round" transform="translate(117.39136735676396 10) rotate(0 98.22381160679629 32.80242035590777)"><path d="M-0.82 0.81 L195.65 -0.67 L198.02 66.51 L1.34 65.94" stroke="none" stroke-width="0" fill="#a5d8ff"></path><path d="M0 0 C45.59 -1.4, 88.9 -1.5, 196.45 0 M0 0 C55.06 2.29, 111.7 2.17, 196.45 0 M196.45 0 C198.72 20.76, 196.32 45.73, 196.45 65.6 M196.45 0 C196.08 25.94, 195.8 50.82, 196.45 65.6 M196.45 65.6 C118.85 67.28, 40.19 66.03, 0 65.6 M196.45 65.6 C149.43 66.86, 103.79 66.4, 0 65.6 M0 65.6 C2.15 49.06, 0.13 30.83, 0 0 M0 65.6 C-0.87 41.73, -1 15.68, 0 0" stroke="#1e1e1e" stroke-width="2" fill="none"></path></g><g transform="translate(186.16205396356025 31.30242035590777) rotate(0 29.453125 11.5)"><text x="29.453125" y="18.400390625" font-family="Helvetica, Segoe UI Emoji" font-size="20px" fill="#000" text-anchor="middle" style="white-space: pre;" direction="ltr" dominant-baseline="alphabetic">Server</text></g><g stroke-linecap="round" transform="translate(117.39136735676396 901.2165284389694) rotate(0 98.22381160679629 32.80242035590777)"><path d="M-0.8 -0.67 L198.02 0.91 L197.79 65.94 L0.89 66.42" stroke="none" stroke-width="0" fill="#a5d8ff"></path><path d="M0 0 C77.05 -0.1, 150.39 0.2, 196.45 0 M0 0 C45.16 -1.01, 90.99 -1.33, 196.45 0 M196.45 0 C196.64 15.36, 198.93 27.41, 196.45 65.6 M196.45 0 C195.58 19.12, 197.18 39.42, 196.45 65.6 M196.45 65.6 C118.78 64.08, 41.02 66.41, 0 65.6 M196.45 65.6 C128.18 66.02, 58.91 65.23, 0 65.6 M0 65.6 C-0.99 45.8, 1.03 30.46, 0 0 M0 65.6 C-0.28 48.47, -0.13 32.8, 0 0" stroke="#1e1e1e" stroke-width="2" fill="none"></path></g><g transform="translate(186.16205396356025 922.5189487948769) rotate(0 29.453125 11.5)"><text x="29.453125" y="18.400390625" font-family="Helvetica, Segoe UI Emoji" font-size="20px" fill="#000" text-anchor="middle" style="white-space: pre;" direction="ltr" dominant-baseline="alphabetic">Server</text></g><g stroke-linecap="round" transform="translate(388.4890873915217 10) rotate(0 98.22381160679629 32.80242035590777)"><path d="M1.58 0.91 L197.79 0.33 L197.34 66.42 L-1.12 65.68" stroke="none" stroke-width="0" fill="#a5d8ff"></path><path d="M0 0 C61.02 0.31, 121.26 -1.87, 196.45 0 M0 0 C77.5 -1.1, 153.37 -0.61, 196.45 0 M196.45 0 C198.14 15.4, 196.31 30.17, 196.45 65.6 M196.45 0 C197 21.13, 196.96 42.44, 196.45 65.6 M196.45 65.6 C137.59 65.18, 82.24 63.12, 0 65.6 M196.45 65.6 C131.28 64.33, 66.83 66.04, 0 65.6 M0 65.6 C1.69 47.05, -0.78 24.96, 0 0 M0 65.6 C-0.04 40.93, -0.03 15.11, 0 0" stroke="#1e1e1e" stroke-width="2" fill="none"></path></g><g transform="translate(435.013680248318 31.30242035590777) rotate(0 51.69921875 11.5)"><text x="51.69921875" y="18.400390625" font-family="Helvetica, Segoe UI Emoji" font-size="20px" fill="#000" text-anchor="middle" style="white-space: pre;" direction="ltr" dominant-baseline="alphabetic">ThreadPool</text></g><g stroke-linecap="round" transform="translate(388.4890873915217 901.2165284389694) rotate(0 98.22381160679629 32.80242035590777)"><path d="M1.34 0.33 L197.34 0.82 L195.33 65.68 L1.22 63.98" stroke="none" stroke-width="0" fill="#a5d8ff"></path><path d="M0 0 C58.93 -2.17, 122.48 -0.74, 196.45 0 M0 0 C73.91 0.01, 148.98 -1.19, 196.45 0 M196.45 0 C197.06 24.32, 197.5 48.81, 196.45 65.6 M196.45 0 C198 15.8, 197.01 31.07, 196.45 65.6 M196.45 65.6 C152.15 65.42, 106.48 67.07, 0 65.6 M196.45 65.6 C140.52 64.49, 85.06 63.49, 0 65.6 M0 65.6 C-1.44 50.18, 1.14 35.35, 0 0 M0 65.6 C-0.13 49.05, 1.06 33.62, 0 0" stroke="#1e1e1e" stroke-width="2" fill="none"></path></g><g transform="translate(435.013680248318 922.5189487948769) rotate(0 51.69921875 11.5)"><text x="51.69921875" y="18.400390625" font-family="Helvetica, Segoe UI Emoji" font-size="20px" fill="#000" text-anchor="middle" style="white-space: pre;" direction="ltr" dominant-baseline="alphabetic">ThreadPool</text></g><g stroke-linecap="round" transform="translate(650.4192516763119 10) rotate(0 98.22381160679629 32.80242035590777)"><path d="M0.89 0.82 L195.33 0.08 L197.66 63.98 L1.93 66.22" stroke="none" stroke-width="0" fill="#a5d8ff"></path><path d="M0 0 C65.14 1.4, 128.2 2.42, 196.45 0 M0 0 C67.91 -2.14, 137.94 -1, 196.45 0 M196.45 0 C196.9 18.29, 195.23 41.02, 196.45 65.6 M196.45 0 C196.99 19.19, 196.36 38.32, 196.45 65.6 M196.45 65.6 C128.83 65.05, 59.7 63.57, 0 65.6 M196.45 65.6 C156.27 66.86, 115.25 67.87, 0 65.6 M0 65.6 C1.95 40.4, -0.75 16.6, 0 0 M0 65.6 C1.05 43.73, 0.93 21.12, 0 0" stroke="#1e1e1e" stroke-width="2" fill="none"></path></g><g transform="translate(730.3032195331082 31.30242035590777) rotate(0 18.33984375 11.5)"><text x="18.33984375" y="18.400390625" font-family="Helvetica, Segoe UI Emoji" font-size="20px" fill="#000" text-anchor="middle" style="white-space: pre;" direction="ltr" dominant-baseline="alphabetic">Port</text></g><g stroke-linecap="round" transform="translate(650.4192516763119 901.2165284389694) rotate(0 98.22381160679629 32.80242035590777)"><path d="M-1.12 0.08 L197.66 -1.62 L198.38 66.22 L-1.82 65.99" stroke="none" stroke-width="0" fill="#a5d8ff"></path><path d="M0 0 C43.53 1.02, 84.8 -1.52, 196.45 0 M0 0 C78.95 1.36, 156.25 0.45, 196.45 0 M196.45 0 C195.38 19.26, 196.53 36.52, 196.45 65.6 M196.45 0 C195.71 19.82, 196.87 41.39, 196.45 65.6 M196.45 65.6 C148.14 65.2, 98.59 65.7, 0 65.6 M196.45 65.6 C121.76 65.89, 49.3 64.65, 0 65.6 M0 65.6 C-1.59 47.9, 0.27 31.03, 0 0 M0 65.6 C0.15 48.3, -0.07 31.08, 0 0" stroke="#1e1e1e" stroke-width="2" fill="none"></path></g><g transform="translate(730.3032195331082 922.5189487948769) rotate(0 18.33984375 11.5)"><text x="18.33984375" y="18.400390625" font-family="Helvetica, Segoe UI Emoji" font-size="20px" fill="#000" text-anchor="middle" style="white-space: pre;" direction="ltr" dominant-baseline="alphabetic">Port</text></g><g stroke-linecap="round" transform="translate(912.349415961102 10) rotate(0 102.80758948178016 32.80242035590777)"><path d="M1.22 -1.62 L207.55 0.62 L203.8 65.99 L-0.87 63.61" stroke="none" stroke-width="0" fill="#a5d8ff"></path><path d="M0 0 C59.42 -2.28, 118.84 -1.81, 205.62 0 M0 0 C57.06 -1.68, 113.83 -1.48, 205.62 0 M205.62 0 C205.15 17.4, 205.45 30.96, 205.62 65.6 M205.62 0 C205.63 18.26, 204.6 35.84, 205.62 65.6 M205.62 65.6 C136.66 64.36, 72.46 64.8, 0 65.6 M205.62 65.6 C149.57 66.59, 91.95 67.74, 0 65.6 M0 65.6 C1.15 48.78, -0.33 35.12, 0 0 M0 65.6 C0 43.35, -1 20.32, 0 0" stroke="#1e1e1e" stroke-width="2" fill="none"></path></g><g transform="translate(925.1032945053821 31.30242035590777) rotate(0 90.0537109375 11.5)"><text x="90.0537109375" y="18.400390625" font-family="Helvetica, Segoe UI Emoji" font-size="20px" fill="#000" text-anchor="middle" style="white-space: pre;" direction="ltr" dominant-baseline="alphabetic">ConnectionAcceptor</text></g><g stroke-linecap="round" transform="translate(912.349415961102 901.2165284389694) rotate(0 102.80758948178016 32.80242035590777)"><path d="M1.93 0.62 L203.8 0.39 L204.75 63.61 L0.94 66.22" stroke="none" stroke-width="0" fill="#a5d8ff"></path><path d="M0 0 C70.84 0.51, 137.81 3.12, 205.62 0 M0 0 C80.28 0.19, 160.64 -0.56, 205.62 0 M205.62 0 C205.83 25.86, 205.01 50.6, 205.62 65.6 M205.62 0 C205.37 15.81, 206.2 30.87, 205.62 65.6 M205.62 65.6 C154.93 65.26, 101.08 63.82, 0 65.6 M205.62 65.6 C127.83 65.48, 50.31 64.28, 0 65.6 M0 65.6 C-0.94 50.18, 0.64 32.94, 0 0 M0 65.6 C-0.85 44.86, 0.32 23.23, 0 0" stroke="#1e1e1e" stroke-width="2" fill="none"></path></g><g transform="translate(925.1032945053821 922.5189487948769) rotate(0 90.0537109375 11.5)"><text x="90.0537109375" y="18.400390625" font-family="Helvetica, Segoe UI Emoji" font-size="20px" fill="#000" text-anchor="middle" style="white-space: pre;" direction="ltr" dominant-baseline="alphabetic">ConnectionAcceptor</text></g><g stroke-linecap="round" transform="translate(1183.4471359958598 10) rotate(0 98.22381160679635 32.80242035590777)"><path d="M-1.82 0.39 L195.58 -1.99 L197.39 66.22 L-0.35 65.85" stroke="none" stroke-width="0" fill="#a5d8ff"></path><path d="M0 0 C40.66 2.9, 84.05 1.23, 196.45 0 M0 0 C58.44 -1.05, 119.09 -0.47, 196.45 0 M196.45 0 C195.94 24.35, 195.26 52.43, 196.45 65.6 M196.45 0 C196.35 22.72, 195.61 44.82, 196.45 65.6 M196.45 65.6 C141.32 64.11, 88.71 67.01, 0 65.6 M196.45 65.6 C146.18 66.69, 96.61 67.62, 0 65.6 M0 65.6 C1.13 49.88, 0.56 32.35, 0 0 M0 65.6 C0.97 42.42, 1.33 21.17, 0 0" stroke="#1e1e1e" stroke-width="2" fill="none"></path></g><g transform="translate(1209.405322602656 31.30242035590777) rotate(0 72.26562499999994 11.5)"><text x="72.265625" y="18.400390625" font-family="Helvetica, Segoe UI Emoji" font-size="20px" fill="#000" text-anchor="middle" style="white-space: pre;" direction="ltr" dominant-baseline="alphabetic">HandlerScanner</text></g><g stroke-linecap="round" transform="translate(1183.4471359958598 901.2165284389694) rotate(0 98.22381160679635 32.80242035590777)"><path d="M-0.87 -1.99 L197.39 0.62 L196.1 65.85 L-1.82 67.43" stroke="none" stroke-width="0" fill="#a5d8ff"></path><path d="M0 0 C48.08 -1.64, 92.49 -2.32, 196.45 0 M0 0 C64.33 1.17, 127.65 1.32, 196.45 0 M196.45 0 C194.99 20.18, 197.23 37.35, 196.45 65.6 M196.45 0 C196.16 20.65, 196.41 43.97, 196.45 65.6 M196.45 65.6 C138.4 65.42, 76.36 63.22, 0 65.6 M196.45 65.6 C120.94 64.97, 45.84 64.23, 0 65.6 M0 65.6 C0.04 41.64, 0.52 14.78, 0 0 M0 65.6 C0.57 45.98, -1.31 25.94, 0 0" stroke="#1e1e1e" stroke-width="2" fill="none"></path></g><g transform="translate(1209.405322602656 922.5189487948769) rotate(0 72.26562499999994 11.5)"><text x="72.265625" y="18.400390625" font-family="Helvetica, Segoe UI Emoji" font-size="20px" fill="#000" text-anchor="middle" style="white-space: pre;" direction="ltr" dominant-baseline="alphabetic">HandlerScanner</text></g><g stroke-linecap="round" transform="translate(1445.3773002806497 10) rotate(0 98.22381160679629 32.80242035590777)"><path d="M0.94 0.62 L196.1 0.24 L194.62 67.43 L-0.81 66.91" stroke="none" stroke-width="0" fill="#a5d8ff"></path><path d="M0 0 C74.98 -0.67, 150.37 -1.22, 196.45 0 M0 0 C47.88 0.18, 93.84 -0.23, 196.45 0 M196.45 0 C197.01 14, 196.62 30.78, 196.45 65.6 M196.45 0 C195.92 19.37, 196.17 36.96, 196.45 65.6 M196.45 65.6 C151.88 66.08, 110.83 65.81, 0 65.6 M196.45 65.6 C147.48 66.06, 100.09 66.85, 0 65.6 M0 65.6 C0.71 40.4, -0.03 18.64, 0 0 M0 65.6 C-1.54 51.44, -1.07 35.89, 0 0" stroke="#1e1e1e" stroke-width="2" fill="none"></path></g><g transform="translate(1458.5571665749462 31.30242035590777) rotate(0 85.0439453125 11.5)"><text x="85.0439453125" y="18.400390625" font-family="Helvetica, Segoe UI Emoji" font-size="20px" fill="#000" text-anchor="middle" style="white-space: pre;" direction="ltr" dominant-baseline="alphabetic">RequestDispatcher</text></g><g stroke-linecap="round" transform="translate(1445.3773002806497 901.2165284389694) rotate(0 98.22381160679629 32.80242035590777)"><path d="M-0.35 0.24 L194.62 1.82 L195.64 66.91 L0.11 67.31" stroke="none" stroke-width="0" fill="#a5d8ff"></path><path d="M0 0 C58.98 -0.56, 115.83 2.63, 196.45 0 M0 0 C58.26 -0.52, 115.95 -0.87, 196.45 0 M196.45 0 C197.35 23.32, 196.44 44.62, 196.45 65.6 M196.45 0 C196.34 13.18, 195.53 27.62, 196.45 65.6 M196.45 65.6 C125.94 63.66, 51.09 63.95, 0 65.6 M196.45 65.6 C130.38 65.4, 63.41 65.11, 0 65.6 M0 65.6 C-0.19 44.22, -1.89 22.34, 0 0 M0 65.6 C0.16 42.89, 1.07 22.49, 0 0" stroke="#1e1e1e" stroke-width="2" fill="none"></path></g><g transform="translate(1458.5571665749462 922.5189487948769) rotate(0 85.0439453125 11.5)"><text x="85.0439453125" y="18.400390625" font-family="Helvetica, Segoe UI Emoji" font-size="20px" fill="#000" text-anchor="middle" style="white-space: pre;" direction="ltr" dominant-baseline="alphabetic">RequestDispatcher</text></g><g stroke-linecap="round" transform="translate(1707.3074645654401 10) rotate(0 125.72647885669926 32.80242035590777)"><path d="M-1.82 1.82 L250.65 1.31 L251.57 67.31 L1.99 64.75" stroke="none" stroke-width="0" fill="#a5d8ff"></path><path d="M0 0 C65.45 2.86, 132.83 2.79, 251.45 0 M0 0 C77.83 0.08, 157.17 0.99, 251.45 0 M251.45 0 C251.32 15.08, 249.74 31.61, 251.45 65.6 M251.45 0 C250.7 25.45, 252.15 48.9, 251.45 65.6 M251.45 65.6 C185.85 63.8, 122.62 63.82, 0 65.6 M251.45 65.6 C185.05 66.67, 117.91 66.87, 0 65.6 M0 65.6 C-1.65 51.52, 0.59 31.74, 0 0 M0 65.6 C0.75 44.97, 0.11 23.83, 0 0" stroke="#1e1e1e" stroke-width="2" fill="none"></path></g><g transform="translate(1719.0886309221396 31.30242035590777) rotate(0 113.9453125 11.5)"><text x="113.9453125" y="18.400390625" font-family="Helvetica, Segoe UI Emoji" font-size="20px" fill="#000" text-anchor="middle" style="white-space: pre;" direction="ltr" dominant-baseline="alphabetic">HttpConnectionProcessor</text></g><g stroke-linecap="round" transform="translate(1707.3074645654401 901.2165284389694) rotate(0 125.72647885669926 32.80242035590777)"><path d="M-0.81 1.31 L251.57 1.7 L253.45 64.75 L0.5 64.55" stroke="none" stroke-width="0" fill="#a5d8ff"></path><path d="M0 0 C59.54 -0.47, 119.37 -2.08, 251.45 0 M0 0 C68.5 1.7, 135.78 1.54, 251.45 0 M251.45 0 C249.44 21.02, 252.87 42.98, 251.45 65.6 M251.45 0 C251.61 17.6, 250.52 36.97, 251.45 65.6 M251.45 65.6 C190.67 64.12, 128.03 66.05, 0 65.6 M251.45 65.6 C164.96 66.28, 77.29 65.98, 0 65.6 M0 65.6 C1.15 40.11, 0.92 17.4, 0 0 M0 65.6 C-0.48 52.59, -1.22 40.24, 0 0" stroke="#1e1e1e" stroke-width="2" fill="none"></path></g><g transform="translate(1719.0886309221396 922.5189487948769) rotate(0 113.9453125 11.5)"><text x="113.9453125" y="18.400390625" font-family="Helvetica, Segoe UI Emoji" font-size="20px" fill="#000" text-anchor="middle" style="white-space: pre;" direction="ltr" dominant-baseline="alphabetic">HttpConnectionProcessor</text></g><g stroke-linecap="round" transform="translate(10 85.69789312901776) rotate(0 205.61517896356025 30)"><path d="M0 0 C163.07 -2.16, 325.56 -2.84, 411.23 0 M411.23 0 C410.4 14.78, 412.06 28.05, 411.23 60 M411.23 60 C307.97 59.54, 202.77 58.65, 0 60 M0 60 C-1.25 39.06, -1.52 13.77, 0 0" stroke="#1e1e1e" stroke-width="2.5" fill="none" stroke-dasharray="8 10"></path></g><g transform="translate(18.690984627622754 104.19789312901776) rotate(0 196.9241943359375 11.5)"><text x="196.9241943359375" y="18.400390625" font-family="Helvetica, Segoe UI Emoji" font-size="20px" fill="#000" text-anchor="middle" style="white-space: pre;" direction="ltr" dominant-baseline="alphabetic">입력: port번호, threadPoolSize, basePackage</text></g><g stroke-linecap="round" transform="translate(117.39136735676396 841.6675191774752) rotate(0 98.22381160679629 19.681452213544617)"><path d="M0 0 C76.5 -1.26, 152.89 1.08, 196.45 0 M196.45 0 C196.77 13.4, 195.29 25.56, 196.45 39.36 M196.45 39.36 C141.32 37.87, 88.71 40.77, 0 39.36 M0 39.36 C-0.95 28.35, -0.65 20.25, 0 0" stroke="#1e1e1e" stroke-width="2.5" fill="none" stroke-dasharray="8 10"></path></g><g transform="translate(158.158574959654 849.8489713910199) rotate(0 57.45660400390625 11.5)"><text x="57.45660400390625" y="18.400390625" font-family="Helvetica, Segoe UI Emoji" font-size="20px" fill="#000" text-anchor="middle" style="white-space: pre;" direction="ltr" dominant-baseline="alphabetic">서버 구동 완료</text></g><g stroke-linecap="round"><g transform="translate(215.61517896356025 75.60484071181554) rotate(0 0 412.80584386357714)"><path d="M0 0 C-1.47 242.42, -0.57 483.63, 0 825.61 M0 0 C0.71 271.52, 0.81 544.11, 0 825.61" stroke="#999" stroke-width="1" fill="none"></path></g></g><mask></mask><g stroke-linecap="round"><g transform="translate(486.712898998318 75.60484071181554) rotate(0 0 412.80584386357714)"><path d="M0 0 C-1.71 189.83, -1.86 380.77, 0 825.61 M0 0 C-1.64 234.43, -1.53 468.16, 0 825.61" stroke="#999" stroke-width="1" fill="none"></path></g></g><mask></mask><g stroke-linecap="round"><g transform="translate(748.6430632831082 75.60484071181554) rotate(0 0 412.80584386357714)"><path d="M0 0 C1.85 286.88, 1.48 572.95, 0 825.61 M0 0 C-0.71 168.89, -1.03 338.28, 0 825.61" stroke="#999" stroke-width="1" fill="none"></path></g></g><mask></mask><g stroke-linecap="round"><g transform="translate(1015.1570054428821 75.60484071181554) rotate(0 0 412.80584386357714)"><path d="M0 0 C0.84 201.26, 0.21 403.09, 0 825.61 M0 0 C-0.2 310.93, 0.38 621.06, 0 825.61" stroke="#999" stroke-width="1" fill="none"></path></g></g><mask></mask><g stroke-linecap="round"><g transform="translate(1281.670947602656 75.60484071181554) rotate(0 0 412.80584386357714)"><path d="M0 0 C-1.3 269.88, 0.07 540.14, 0 825.61 M0 0 C-2.3 227.25, -2.74 455.21, 0 825.61" stroke="#999" stroke-width="1" fill="none"></path></g></g><mask></mask><g stroke-linecap="round"><g transform="translate(1543.6011118874462 75.60484071181554) rotate(0 0 412.80584386357714)"><path d="M0 0 C-2.54 209.01, -3.34 417.35, 0 825.61 M0 0 C2.05 311.13, 2 621.39, 0 825.61" stroke="#999" stroke-width="1" fill="none"></path></g></g><mask></mask><g stroke-linecap="round"><g transform="translate(1833.0339434221391 75.60484071181554) rotate(0 0 412.80584386357714)"><path d="M0 0 C2.32 228.99, 3.13 459.76, 0 825.61 M0 0 C-1.63 208.73, -1.57 418.04, 0 825.61" stroke="#999" stroke-width="1" fill="none"></path></g></g><mask></mask><g mask="url(#mask-M31Ae4CgySl6fDxD5d8Rt)" stroke-linecap="round"><g transform="translate(217.57965519569618 165.43300722491654) rotate(0 131.61990755310703 0)"><path d="M-0.93 0.92 C43.07 0.87, 220.1 -0.57, 264.05 -0.56 M0.78 0.35 C44.69 0.49, 220.04 0.88, 263.52 0.68" stroke="#1e1e1e" stroke-width="2" fill="none"></path></g><g transform="translate(217.57965519569618 165.43300722491654) rotate(0 131.61990755310703 0)"><path d="M240.04 9.24 C248.71 8.17, 253.36 3.38, 263.52 0.68 M240.04 9.24 C248.65 6.5, 257.64 2.48, 263.52 0.68" stroke="#1e1e1e" stroke-width="2" fill="none"></path></g><g transform="translate(217.57965519569618 165.43300722491654) rotate(0 131.61990755310703 0)"><path d="M240.03 -7.86 C248.66 -3.74, 253.32 -3.35, 263.52 0.68 M240.03 -7.86 C248.55 -4.07, 257.55 -1.54, 263.52 0.68" stroke="#1e1e1e" stroke-width="2" fill="none"></path></g></g><mask id="mask-M31Ae4CgySl6fDxD5d8Rt"><rect x="0" y="0" fill="#fff" width="580.8194703019102" height="265.43300722491654"></rect><rect x="261.29898901833445" y="153.93300722491654" fill="#000" width="175.8011474609375" height="23" opacity="1"></rect></mask><g transform="translate(261.29898901833445 153.93300722491654) rotate(0 87.83678754679858 11.677092710733632)"><text x="87.90057373046875" y="18.400390625" font-family="Helvetica, Segoe UI Emoji" font-size="20px" fill="#1e1e1e" text-anchor="middle" style="white-space: pre;" direction="ltr" dominant-baseline="alphabetic">threadPoolSize 전달</text></g><g mask="url(#mask-pZwXMnDwg0SZhZqNqH50V)" stroke-linecap="round"><g transform="translate(487.36772440903 215.39361669006826) rotate(0 44.07287204930637 10.468848618967286)"><path d="M0.81 -0.56 C14.08 -2.15, 65.76 -13.72, 78.72 -8.6 C91.68 -3.48, 91.55 25.1, 78.57 30.15 C65.58 35.2, 13.78 23.24, 0.82 21.68 M-0.23 1.76 C12.93 -0.23, 64.56 -15.1, 77.51 -10.2 C90.45 -5.31, 90.23 26.21, 77.45 31.14 C64.67 36.07, 13.26 21.07, 0.81 19.38" stroke="#1e1e1e" stroke-width="2" fill="none"></path></g><g transform="translate(487.36772440903 215.39361669006826) rotate(0 44.07287204930637 10.468848618967286)"><path d="M25.57 15.95 C19.16 16.03, 16.25 16.53, 0.81 19.38 M25.57 15.95 C19.04 16.56, 14.1 18.2, 0.81 19.38" stroke="#1e1e1e" stroke-width="2" fill="none"></path></g><g transform="translate(487.36772440903 215.39361669006826) rotate(0 44.07287204930637 10.468848618967286)"><path d="M21.98 32.67 C16.24 29.01, 14.12 25.8, 0.81 19.38 M21.98 32.67 C16.4 29.13, 12.35 26.64, 0.81 19.38" stroke="#1e1e1e" stroke-width="2" fill="none"></path></g></g><mask id="mask-pZwXMnDwg0SZhZqNqH50V"><rect x="0" y="0" fill="#fff" width="666.601599105179" height="355.76582635887775"></rect><rect x="518.2826868846898" y="214.94133763088985" fill="#000" width="114.9132080078125" height="23" opacity="1"></rect></mask><g transform="translate(518.2826868846898 214.94133763088985) rotate(0 13.157909573646492 10.921127678145695)"><text x="57.45660400390625" y="18.400390625" font-family="Helvetica, Segoe UI Emoji" font-size="20px" fill="#1e1e1e" text-anchor="middle" style="white-space: pre;" direction="ltr" dominant-baseline="alphabetic">쓰레드 풀 생성</text></g><g mask="url(#mask-qezn_TvEDgPFS8Crwq6Dd)" stroke-linecap="round"><g transform="translate(217.57965519569618 296.6426886485474) rotate(0 262.5849896955021 0)"><path d="M-0.51 0.99 C86.77 0.98, 436.97 -0.55, 524.5 -0.63 M1.42 0.46 C89.03 0.65, 439.82 0.92, 526.86 0.57" stroke="#1e1e1e" stroke-width="2" fill="none"></path></g><g transform="translate(217.57965519569618 296.6426886485474) rotate(0 262.5849896955021 0)"><path d="M503.38 9.15 C513.69 4.99, 519.61 2.13, 526.86 0.57 M503.38 9.15 C512.19 6.76, 520.07 3.56, 526.86 0.57" stroke="#1e1e1e" stroke-width="2" fill="none"></path></g><g transform="translate(217.57965519569618 296.6426886485474) rotate(0 262.5849896955021 0)"><path d="M503.36 -7.95 C513.6 -5.83, 519.53 -2.41, 526.86 0.57 M503.36 -7.95 C512.11 -4.52, 519.99 -1.9, 526.86 0.57" stroke="#1e1e1e" stroke-width="2" fill="none"></path></g></g><mask id="mask-qezn_TvEDgPFS8Crwq6Dd"><rect x="0" y="0" fill="#fff" width="842.7496345867004" height="396.6426886485474"></rect><rect x="425.55490368026074" y="285.1426886485474" fill="#000" width="109.219482421875" height="23" opacity="1"></rect></mask><g transform="translate(425.5549036802608 285.1426886485474) rotate(0 55.20114971559491 11.677361588552571)"><text x="54.6097412109375" y="18.400390625" font-family="Helvetica, Segoe UI Emoji" font-size="20px" fill="#1e1e1e" text-anchor="middle" style="white-space: pre;" direction="ltr" dominant-baseline="alphabetic">port번호 전달</text></g><g mask="url(#mask-y7yzd03s0fAINiLs61sP7)" stroke-linecap="round"><g transform="translate(749.2978886938201 346.6032981136991) rotate(0 43.91378692274242 10.27355158374587)"><path d="M-0.67 -0.63 C12.54 -2.31, 65.51 -14.27, 78.74 -9.1 C91.98 -3.94, 91.5 25.24, 78.76 30.38 C66.01 35.52, 15.03 23.24, 2.26 21.74 M1.18 1.65 C14.23 -0.48, 64.78 -15.95, 77.54 -10.97 C90.3 -6, 90.16 26.41, 77.74 31.48 C65.32 36.56, 15.78 21.07, 3 19.47" stroke="#1e1e1e" stroke-width="2" fill="none"></path></g><g transform="translate(749.2978886938201 346.6032981136991) rotate(0 43.91378692274242 10.27355158374587)"><path d="M27.78 16.15 C20.37 16.05, 15.85 16.92, 3 19.47 M27.78 16.15 C21.88 17.31, 15.05 18.44, 3 19.47" stroke="#1e1e1e" stroke-width="2" fill="none"></path></g><g transform="translate(749.2978886938201 346.6032981136991) rotate(0 43.91378692274242 10.27355158374587)"><path d="M24.12 32.85 C17.51 28.47, 13.94 25.05, 3 19.47 M24.12 32.85 C19.06 29.55, 13.21 26.23, 3 19.47" stroke="#1e1e1e" stroke-width="2" fill="none"></path></g></g><mask id="mask-y7yzd03s0fAINiLs61sP7"><rect x="0" y="0" fill="#fff" width="928.5317633899692" height="486.9755077825086"></rect><rect x="754.4525656787238" y="345.96766694363214" fill="#000" width="166.67608642578125" height="23" opacity="1"></rect></mask><g transform="translate(754.4525656787237 345.96766694363214) rotate(0 38.75910993783879 10.909182753812843)"><text x="83.33804321289062" y="18.400390625" font-family="Helvetica, Segoe UI Emoji" font-size="20px" fill="#1e1e1e" text-anchor="middle" style="white-space: pre;" direction="ltr" dominant-baseline="alphabetic">port번호 유효성 검증</text></g><g mask="url(#mask-70HQH_c_huKF2SuRCBgoV)" stroke-linecap="round"><g transform="translate(217.57965519569618 427.85237007217825) rotate(0 395.84196077538905 0)"><path d="M-0.49 0.48 C131.49 0.52, 659.02 -0.42, 791.21 -0.4 M1.45 -0.31 C133.29 -0.05, 658.19 1.12, 790.01 0.92" stroke="#1e1e1e" stroke-width="2" fill="none"></path></g><g transform="translate(217.57965519569618 427.85237007217825) rotate(0 395.84196077538905 0)"><path d="M766.51 9.46 C773.1 6.67, 777.36 6.96, 790.01 0.92 M766.51 9.46 C775.01 6.88, 782.13 3.56, 790.01 0.92" stroke="#1e1e1e" stroke-width="2" fill="none"></path></g><g transform="translate(217.57965519569618 427.85237007217825) rotate(0 395.84196077538905 0)"><path d="M766.52 -7.65 C773.02 -6.25, 777.28 -1.79, 790.01 0.92 M766.52 -7.65 C775.14 -4.32, 782.25 -1.73, 790.01 0.92" stroke="#1e1e1e" stroke-width="2" fill="none"></path></g></g><mask id="mask-70HQH_c_huKF2SuRCBgoV"><rect x="0" y="0" fill="#fff" width="1109.2635767464742" height="527.8523700721782"></rect><rect x="554.9251560101477" y="416.35237007217825" fill="#000" width="116.992919921875" height="23" opacity="1"></rect></mask><g transform="translate(554.9251560101477 416.35237007217825) rotate(0 58.01291579119862 11.768966317859167)"><text x="58.4964599609375" y="18.400390625" font-family="Helvetica, Segoe UI Emoji" font-size="20px" fill="#1e1e1e" text-anchor="middle" style="white-space: pre;" direction="ltr" dominant-baseline="alphabetic">Port 객체 전달</text></g><g mask="url(#mask-nRGMYDiANw1uT2QX2UM9P)" stroke-linecap="round"><g transform="translate(1015.8118308535941 477.81297953732997) rotate(0 44.78119396746371 10.53069761502752)"><path d="M-0.48 -0.4 C12.97 -1.99, 66.76 -14.28, 80.18 -9.04 C93.6 -3.81, 93.1 25.86, 80.04 30.98 C66.98 36.11, 15.08 23.31, 1.84 21.69 M1.47 -1.66 C14.88 -3.65, 66.69 -16.56, 79.73 -10.88 C92.77 -5.2, 92.59 27.36, 79.7 32.41 C66.8 37.45, 15.24 21.18, 2.37 19.39" stroke="#1e1e1e" stroke-width="2" fill="none"></path></g><g transform="translate(1015.8118308535941 477.81297953732997) rotate(0 44.78119396746371 10.53069761502752)"><path d="M27.18 16.29 C20.08 18.57, 15.24 19.14, 2.37 19.39 M27.18 16.29 C18.78 17.41, 12.09 17.54, 2.37 19.39" stroke="#1e1e1e" stroke-width="2" fill="none"></path></g><g transform="translate(1015.8118308535941 477.81297953732997) rotate(0 44.78119396746371 10.53069761502752)"><path d="M23.37 32.96 C17.2 30.93, 13.34 27.18, 2.37 19.39 M23.37 32.96 C16.1 28.78, 10.61 23.64, 2.37 19.39" stroke="#1e1e1e" stroke-width="2" fill="none"></path></g></g><mask id="mask-nRGMYDiANw1uT2QX2UM9P"><rect x="0" y="0" fill="#fff" width="1195.0457055497432" height="618.1851892061395"></rect><rect x="1068.4692246782397" y="477.5548826057868" fill="#000" width="74.756591796875" height="23" opacity="1"></rect></mask><g transform="translate(1068.4692246782402 477.5548826057866) rotate(0 -7.876199857182144 10.788794546570898)"><text x="37.3782958984375" y="18.400390625" font-family="Helvetica, Segoe UI Emoji" font-size="20px" fill="#1e1e1e" text-anchor="middle" style="white-space: pre;" direction="ltr" dominant-baseline="alphabetic">소켓 생성</text></g><g mask="url(#mask-mc0GuA7u2PVtXrabOimgm)" stroke-linecap="round"><g transform="translate(217.57965519569618 559.0620514958091) rotate(0 529.0989318552761 0)"><path d="M0.95 0.54 C177.53 0.65, 882.71 0.21, 1059 0.2 M-0.02 -0.21 C176.52 -0.47, 882.1 -1.59, 1058.48 -1.82" stroke="#1e1e1e" stroke-width="2" fill="none"></path></g><g transform="translate(217.57965519569618 559.0620514958091) rotate(0 529.0989318552761 0)"><path d="M1035 6.77 C1042.05 5.69, 1047.58 3.01, 1058.48 -1.82 M1035 6.77 C1043.66 3.02, 1052.03 1.21, 1058.48 -1.82" stroke="#1e1e1e" stroke-width="2" fill="none"></path></g><g transform="translate(217.57965519569618 559.0620514958091) rotate(0 529.0989318552761 0)"><path d="M1034.97 -10.33 C1041.97 -6.96, 1047.51 -5.2, 1058.48 -1.82 M1034.97 -10.33 C1043.55 -8.25, 1051.92 -4.22, 1058.48 -1.82" stroke="#1e1e1e" stroke-width="2" fill="none"></path></g></g><mask id="mask-mc0GuA7u2PVtXrabOimgm"><rect x="0" y="0" fill="#fff" width="1375.7775189062484" height="659.0620514958091"></rect><rect x="665.9996930080035" y="547.5620514958091" fill="#000" width="161.3577880859375" height="23" opacity="1"></rect></mask><g transform="translate(665.9996930080035 547.5620514958091) rotate(0 81.07403052430607 10.871866689248236)"><text x="80.67889404296875" y="18.400390625" font-family="Helvetica, Segoe UI Emoji" font-size="20px" fill="#1e1e1e" text-anchor="middle" style="white-space: pre;" direction="ltr" dominant-baseline="alphabetic">basePackage 전달</text></g><g mask="url(#mask-mW1OeGtxZW0pLBzr4MRIb)" stroke-linecap="round"><g transform="translate(1282.325773013368 609.0226609609608) rotate(0 44.337804608133126 10.525034636808073)"><path d="M0.81 0.2 C13.94 -1.41, 66.81 -14.2, 79.77 -9.1 C92.73 -3.99, 91.52 25.94, 78.56 30.83 C65.61 35.72, 14.72 21.77, 2.04 20.22 M-0.23 -0.74 C12.71 -2.76, 66.15 -16.45, 79.1 -10.96 C92.05 -5.48, 90.19 26.87, 77.45 32.17 C64.71 37.47, 15.31 22.48, 2.67 20.81" stroke="#1e1e1e" stroke-width="2" fill="none"></path></g><g transform="translate(1282.325773013368 609.0226609609608) rotate(0 44.337804608133126 10.525034636808073)"><path d="M27.44 17.44 C18.41 19.77, 9.51 19.05, 2.67 20.81 M27.44 17.44 C20.9 18.57, 11.5 19.48, 2.67 20.81" stroke="#1e1e1e" stroke-width="2" fill="none"></path></g><g transform="translate(1282.325773013368 609.0226609609608) rotate(0 44.337804608133126 10.525034636808073)"><path d="M23.82 34.15 C16.08 30.13, 8.55 23.07, 2.67 20.81 M23.82 34.15 C18.28 30.24, 9.98 26.07, 2.67 20.81" stroke="#1e1e1e" stroke-width="2" fill="none"></path></g></g><mask id="mask-mW1OeGtxZW0pLBzr4MRIb"><rect x="0" y="0" fill="#fff" width="1461.559647709517" height="749.3948706297704"></rect><rect x="1316.0947922310024" y="608.895070692311" fill="#000" width="110.1956787109375" height="23" opacity="1"></rect></mask><g transform="translate(1316.094792231002 608.8950706923108) rotate(0 10.568785390499045 10.652624905458083)"><text x="55.09783935546875" y="18.400390625" font-family="Helvetica, Segoe UI Emoji" font-size="20px" fill="#1e1e1e" text-anchor="middle" style="white-space: pre;" direction="ltr" dominant-baseline="alphabetic">Handler 스캔</text></g><g mask="url(#mask-h1Jb9uI5eJpQHz8cWte_V)" stroke-linecap="round"><g transform="translate(1283.635423834792 690.2717329194397) rotate(0 127.03612967812325 0)"><path d="M0.53 0.49 C42.63 0.47, 211.02 0.29, 253.4 0.05 M-0.64 -0.3 C41.78 -0.13, 213.25 1.59, 255.76 1.61" stroke="#1e1e1e" stroke-width="2" fill="none"></path></g><g transform="translate(1283.635423834792 690.2717329194397) rotate(0 127.03612967812325 0)"><path d="M232.22 10.02 C241.67 5.71, 249.57 4.95, 255.76 1.61 M232.22 10.02 C236.38 8.3, 242.01 5.27, 255.76 1.61" stroke="#1e1e1e" stroke-width="2" fill="none"></path></g><g transform="translate(1283.635423834792 690.2717329194397) rotate(0 127.03612967812325 0)"><path d="M232.32 -7.08 C241.76 -5.11, 249.63 0.41, 255.76 1.61 M232.32 -7.08 C236.63 -5.06, 242.23 -4.35, 255.76 1.61" stroke="#1e1e1e" stroke-width="2" fill="none"></path></g></g><mask id="mask-h1Jb9uI5eJpQHz8cWte_V"><rect x="0" y="0" fill="#fff" width="1637.7076831910383" height="790.2717329194397"></rect><rect x="1337.2338704074464" y="678.7717329194397" fill="#000" width="146.8753662109375" height="23" opacity="1"></rect></mask><g transform="translate(1337.2338704074464 678.7717329194397) rotate(0 73.96079212933768 12.155691182315422)"><text x="73.43768310546875" y="18.400390625" font-family="Helvetica, Segoe UI Emoji" font-size="20px" fill="#1e1e1e" text-anchor="middle" style="white-space: pre;" direction="ltr" dominant-baseline="alphabetic">Handler List 전달</text></g><g mask="url(#mask-kcPSCgPUp_Hb-FAQcDDlN)" stroke-linecap="round"><g transform="translate(217.57965519569618 740.7369950054517) rotate(0 804.7804297650176 0)"><path d="M-0.67 0.05 C267.62 -0.2, 1341.73 -1.03, 1610.29 -0.97 M1.18 -0.98 C269.33 -1.14, 1341.49 0.19, 1609.73 0.05" stroke="#1e1e1e" stroke-width="2" fill="none"></path></g><g transform="translate(217.57965519569618 740.7369950054517) rotate(0 804.7804297650176 0)"><path d="M1586.23 8.59 C1594.36 7, 1600.76 4.77, 1609.73 0.05 M1586.23 8.59 C1593.65 4.72, 1602.33 3.2, 1609.73 0.05" stroke="#1e1e1e" stroke-width="2" fill="none"></path></g><g transform="translate(217.57965519569618 740.7369950054517) rotate(0 804.7804297650176 0)"><path d="M1586.24 -8.51 C1594.44 -4.21, 1600.83 -0.55, 1609.73 0.05 M1586.24 -8.51 C1593.5 -6.72, 1602.18 -2.58, 1609.73 0.05" stroke="#1e1e1e" stroke-width="2" fill="none"></path></g></g><mask id="mask-kcPSCgPUp_Hb-FAQcDDlN"><rect x="0" y="0" fill="#fff" width="1927.1405147257315" height="840.7369950054517"></rect><rect x="848.3529133298545" y="729.2369950054517" fill="#000" width="348.01434326171875" height="23" opacity="1"></rect></mask><g transform="translate(848.3529133298543 729.2369950054517) rotate(0 174.03729190938168 11.035595325058921)"><text x="174.00717163085938" y="18.400390625" font-family="Helvetica, Segoe UI Emoji" font-size="20px" fill="#1e1e1e" text-anchor="middle" style="white-space: pre;" direction="ltr" dominant-baseline="alphabetic">클라이언트 소켓, RequestDispatcher 전달</text></g><g mask="url(#mask-j8Pu00Oaoz0VJjolUTyWQ)" stroke-linecap="round"><g transform="translate(1833.688768832851 790.6976044706034) rotate(0 44.960123577767945 10.665754812189107)"><path d="M0.73 -0.97 C14.24 -2.52, 67.49 -14.55, 80.39 -9.22 C93.3 -3.89, 91.41 26.15, 78.14 31.02 C64.87 35.88, 13.5 21.57, 0.79 20 M-0.35 1.13 C13.17 -0.79, 66.59 -16.36, 80.06 -11.14 C93.52 -5.92, 93.68 27.18, 80.46 32.45 C67.25 37.72, 14.06 22.19, 0.76 20.47" stroke="#1e1e1e" stroke-width="2" fill="none"></path></g><g transform="translate(1833.688768832851 790.6976044706034) rotate(0 44.960123577767945 10.665754812189107)"><path d="M25.51 16.96 C17.85 19.9, 14.05 17.01, 0.76 20.47 M25.51 16.96 C18.06 18.14, 9.52 19.08, 0.76 20.47" stroke="#1e1e1e" stroke-width="2" fill="none"></path></g><g transform="translate(1833.688768832851 790.6976044706034) rotate(0 44.960123577767945 10.665754812189107)"><path d="M21.98 33.69 C15.17 32.52, 12.23 25.54, 0.76 20.47 M21.98 33.69 C15.73 29.57, 8.32 25.16, 0.76 20.47" stroke="#1e1e1e" stroke-width="2" fill="none"></path></g></g><mask id="mask-j8Pu00Oaoz0VJjolUTyWQ"><rect x="0" y="0" fill="#fff" width="2012.9226435290002" height="931.069814139413"></rect><rect x="1905.4338431319402" y="790.8186984624604" fill="#000" width="34.5999755859375" height="23" opacity="1"></rect></mask><g transform="translate(1905.43384313194 790.8186984624604) rotate(0 -26.78495072132091 10.544660820332183)"><text x="17.29998779296875" y="18.400390625" font-family="Helvetica, Segoe UI Emoji" font-size="20px" fill="#1e1e1e" text-anchor="middle" style="white-space: pre;" direction="ltr" dominant-baseline="alphabetic">실행</text></g></svg>