<svg version="1.1" xmlns="http://www.w3.org/2000/svg" viewBox="0 0 735.1412676483659 1524.4199872857976" width="1470.2825352967318" height="3048.839974571595">
    <!-- svg-source:excalidraw -->

    <defs>
        <style class="style-fonts">
            @font-face {
            font-family: "Virgil";
            src: url("https://excalidraw.com/Virgil.woff2");
            }
            @font-face {
            font-family: "Cascadia";
            src: url("https://excalidraw.com/Cascadia.woff2");
            }
            @font-face {
            font-family: "Assistant";
            src: url("https://excalidraw.com/Assistant-Regular.woff2");
            }
        </style>

    </defs>
    <rect x="0" y="0" width="735.1412676483659" height="1524.4199872857976" fill="#ffffff"></rect><g stroke-linecap="round" transform="translate(10 10) rotate(0 85.54321383353658 37.06872599453254)"><path d="M-2 1.33 L170.34 0.5 L169.92 74.25 L-0.9 74.22" stroke="none" stroke-width="0" fill="#ffec99"></path><path d="M0 0 C33.67 1.99, 70.6 -0.61, 171.09 0 M0 0 C38.16 -0.81, 77.19 -0.92, 171.09 0 M171.09 0 C172.14 15.29, 172.38 34.62, 171.09 74.14 M171.09 0 C171.77 19.68, 172.24 39.42, 171.09 74.14 M171.09 74.14 C134 74.04, 93.87 74.79, 0 74.14 M171.09 74.14 C127.77 75.59, 85.19 74.97, 0 74.14 M0 74.14 C0.26 49.17, 1.34 21.71, 0 0 M0 74.14 C0.73 58.26, -0.05 41.99, 0 0" stroke="#1e1e1e" stroke-width="2" fill="none"></path></g><g transform="translate(65.94725893851705 33.952099873390125) rotate(0 29.59595489501953 13.11662612114219)"><text x="29.59595489501953" y="20.987047331399694" font-family="Helvetica, Segoe UI Emoji" font-size="22.81152368894309px" fill="#000" text-anchor="middle" style="white-space: pre;" direction="ltr" dominant-baseline="alphabetic">사용자</text></g><g stroke-linecap="round" transform="translate(10 1440.2825352967325) rotate(0 85.54321383353658 37.06872599453254)"><path d="M-0.75 0.5 L169.92 0.12 L170.19 74.22 L-0.12 74.76" stroke="none" stroke-width="0" fill="#ffec99"></path><path d="M0 0 C42.6 -2.47, 79.78 -0.84, 171.09 0 M0 0 C52.42 0.38, 104.34 0.53, 171.09 0 M171.09 0 C173.43 18.04, 170.92 33.53, 171.09 74.14 M171.09 0 C172.22 25.66, 170.57 49.74, 171.09 74.14 M171.09 74.14 C107.58 72.81, 46.98 71.18, 0 74.14 M171.09 74.14 C111.37 75.02, 51.09 74.87, 0 74.14 M0 74.14 C1.14 48.15, -1.77 20.57, 0 0 M0 74.14 C-0.68 48.68, -1.31 24.94, 0 0" stroke="#1e1e1e" stroke-width="2" fill="none"></path></g><g transform="translate(65.94725893851705 1464.234635170123) rotate(0 29.59595489501953 13.116626121142417)"><text x="29.59595489501953" y="20.987047331399694" font-family="Helvetica, Segoe UI Emoji" font-size="22.81152368894309px" fill="#000" text-anchor="middle" style="white-space: pre;" direction="ltr" dominant-baseline="alphabetic">사용자</text></g><g stroke-linecap="round" transform="translate(301.78601680754014 10) rotate(0 90.55885985713144 36.97824383054899)"><path d="M-1.17 0.12 L180.22 0.08 L180.99 74.58 L-0.62 74.28" stroke="none" stroke-width="0" fill="#a5d8ff"></path><path d="M0 0 C61.18 1.48, 125.47 0.53, 181.12 0 M0 0 C41.06 0.8, 82.88 2.21, 181.12 0 M181.12 0 C181.04 18.63, 182.59 36.38, 181.12 73.96 M181.12 0 C180.94 22.55, 182.34 47.02, 181.12 73.96 M181.12 73.96 C136.01 71.63, 93.84 73.44, 0 73.96 M181.12 73.96 C117.26 73.62, 52.85 73.89, 0 73.96 M0 73.96 C-2.17 45.65, 0.29 19.86, 0 0 M0 73.96 C-0.73 52.98, -0.11 30.93, 0 0" stroke="#1e1e1e" stroke-width="2" fill="none"></path></g><g transform="translate(306.9823888717028 33.89363447512369) rotate(0 85.36248779296875 13.084609355425073)"><text x="85.36248779296875" y="20.93581941872602" font-family="Helvetica, Segoe UI Emoji" font-size="22.75584235726085px" fill="#000" text-anchor="middle" style="white-space: pre;" direction="ltr" dominant-baseline="alphabetic">SessionManager</text></g><g stroke-linecap="round" transform="translate(301.9870114042539 1436.5977617735093) rotate(0 91.95147446160004 36.97824383054876)"><path d="M-0.9 0.08 L183.78 0.62 L183.28 74.28 L1.19 74.17" stroke="none" stroke-width="0" fill="#a5d8ff"></path><path d="M0 0 C39.82 -0.96, 77.98 -0.23, 183.9 0 M0 0 C39.71 1.96, 80.41 2.08, 183.9 0 M183.9 0 C184.45 29.17, 183.95 58.52, 183.9 73.96 M183.9 0 C183.91 25.33, 182.75 49.14, 183.9 73.96 M183.9 73.96 C133.17 71.94, 81.46 73.24, 0 73.96 M183.9 73.96 C130.49 73.6, 76.67 74.14, 0 73.96 M0 73.96 C1.37 51.23, 0.49 26.08, 0 0 M0 73.96 C0.36 55.96, 0.16 37.52, 0 0" stroke="#1e1e1e" stroke-width="2" fill="none"></path></g><g transform="translate(308.57599807288517 1460.491396248633) rotate(0 85.36248779296872 13.084609355425073)"><text x="85.36248779296875" y="20.93581941872602" font-family="Helvetica, Segoe UI Emoji" font-size="22.75584235726085px" fill="#000" text-anchor="middle" style="white-space: pre;" direction="ltr" dominant-baseline="alphabetic">SessionManager</text></g><g stroke-linecap="round" transform="translate(554.0548399812927 10) rotate(0 85.54321383353658 37.06872599453254)"><path d="M-0.12 0.62 L170.47 0.32 L172.28 74.35 L-0.84 75.95" stroke="none" stroke-width="0" fill="#a5d8ff"></path><path d="M0 0 C49.53 0.59, 100.22 -0.7, 171.09 0 M0 0 C39.64 -0.42, 81.3 -1.68, 171.09 0 M171.09 0 C171.71 26.98, 172.16 48.98, 171.09 74.14 M171.09 0 C170.97 15.25, 171.35 31.95, 171.09 74.14 M171.09 74.14 C137.95 75.11, 102.46 75.1, 0 74.14 M171.09 74.14 C124.27 74.81, 76.2 73.36, 0 74.14 M0 74.14 C-0.42 54.27, -1.33 33.86, 0 0 M0 74.14 C-0.3 47.04, -0.17 19.87, 0 0" stroke="#1e1e1e" stroke-width="2" fill="none"></path></g><g transform="translate(599.0234612244973 33.952099873390125) rotate(0 40.57459259033203 13.11662612114219)"><text x="40.57459259033203" y="20.987047331399694" font-family="Helvetica, Segoe UI Emoji" font-size="22.81152368894309px" fill="#000" text-anchor="middle" style="white-space: pre;" direction="ltr" dominant-baseline="alphabetic">Session</text></g><g stroke-linecap="round" transform="translate(554.0548399812927 1440.0885076621184) rotate(0 85.54321383353658 37.06872599453254)"><path d="M-0.62 0.32 L172.28 0.21 L170.25 75.95 L0.37 73.36" stroke="none" stroke-width="0" fill="#a5d8ff"></path><path d="M0 0 C41.17 -1.33, 84.24 -1.36, 171.09 0 M0 0 C65.26 -1.89, 129.25 -1.11, 171.09 0 M171.09 0 C171.98 23.47, 169.58 51.34, 171.09 74.14 M171.09 0 C170.49 23.84, 169.67 49.14, 171.09 74.14 M171.09 74.14 C121.18 76.22, 71.08 76.21, 0 74.14 M171.09 74.14 C119.09 74.27, 66.29 75.5, 0 74.14 M0 74.14 C-1.01 46.75, 1.38 22.61, 0 0 M0 74.14 C-0.02 50.09, 0.37 26.26, 0 0" stroke="#1e1e1e" stroke-width="2" fill="none"></path></g><g transform="translate(599.0234612244973 1464.040607535509) rotate(0 40.57459259033203 13.116626121142417)"><text x="40.57459259033203" y="20.987047331399694" font-family="Helvetica, Segoe UI Emoji" font-size="22.81152368894309px" fill="#000" text-anchor="middle" style="white-space: pre;" direction="ltr" dominant-baseline="alphabetic">Session</text></g><g stroke-linecap="round" transform="translate(301.98750321847155 1281.7424456585773) rotate(0 85.54321383353661 22.241235596719434)"><path d="M0 0 C47.72 -0.26, 99.56 0.15, 171.09 0 M171.09 0 C172.28 18.11, 172.22 34.91, 171.09 44.48 M171.09 44.48 C103.64 44.31, 40 41.99, 0 44.48 M0 44.48 C-1.91 36.46, -0.1 27.46, 0 0" stroke="#1e1e1e" stroke-width="2.5" fill="none" stroke-dasharray="8 10"></path></g><g transform="translate(335.03545490601203 1290.8670551341543) rotate(0 52.49526214599612 13.11662612114219)"><text x="52.495262145996094" y="20.987047331399694" font-family="Helvetica, Segoe UI Emoji" font-size="22.81152368894309px" fill="#000" text-anchor="middle" style="white-space: pre;" direction="ltr" dominant-baseline="alphabetic">주기적 작업</text></g><g stroke-linecap="round"><g transform="translate(95.54321383353658 84.13745198906463) rotate(0 0 678.0725416538335)"><path d="M0 0 C-2.91 300.8, -2.81 603.21, 0 1356.15 M0 0 C2.38 357.07, 2.57 714.18, 0 1356.15" stroke="#999" stroke-width="1" fill="none"></path></g></g><mask></mask><g stroke-linecap="round"><g transform="translate(387.53071705200813 84.13745198906463) rotate(0 0 678.0725416538335)"><path d="M0 0 C4.86 299.81, 3.86 598.6, 0 1356.15 M0 0 C2.41 462.49, 1.75 924.35, 0 1356.15" stroke="#999" stroke-width="1" fill="none"></path></g></g><mask></mask><g stroke-linecap="round"><g transform="translate(639.5980538148293 84.13745198906463) rotate(0 0 678.0725416538335)"><path d="M0 0 C4.52 326.9, 5.15 653.45, 0 1356.15 M0 0 C4.28 428.18, 4.84 857.11, 0 1356.15" stroke="#999" stroke-width="1" fill="none"></path></g></g><mask></mask><g mask="url(#mask-LpPIYN-vK3a7o6XCoAyk-)" stroke-linecap="round"><g transform="translate(97.25407811020733 129.76049936695154) rotate(0 142.5720230558943 0)"><path d="M0.49 0.49 C47.93 0.6, 237.99 0.2, 285.6 0.19 M-0.71 -0.3 C46.52 0.07, 237.12 2.05, 284.89 1.83" stroke="#1e1e1e" stroke-width="2" fill="none"></path></g><g transform="translate(97.25407811020733 129.76049936695154) rotate(0 142.5720230558943 0)"><path d="M261.37 10.29 C271.26 7.7, 279.79 5.39, 284.89 1.83 M261.37 10.29 C270 7.89, 276.81 3.79, 284.89 1.83" stroke="#1e1e1e" stroke-width="2" fill="none"></path></g><g transform="translate(97.25407811020733 129.76049936695154) rotate(0 142.5720230558943 0)"><path d="M261.44 -6.81 C271.23 -2.83, 279.75 1.43, 284.89 1.83 M261.44 -6.81 C269.91 -3.42, 276.7 -1.73, 284.89 1.83" stroke="#1e1e1e" stroke-width="2" fill="none"></path></g></g><mask id="mask-LpPIYN-vK3a7o6XCoAyk-"><rect x="0" y="0" fill="#fff" width="482.39812422199594" height="229.76049936695154"></rect><rect x="159.9577539981329" y="116.64387324580912" fill="#000" width="159.7366943359375" height="26.233252242284554" opacity="1"></rect></mask><g transform="translate(159.9577539981329 116.64387324580912) rotate(0 79.74383467461914 13.891784751023579)"><text x="79.86834716796875" y="20.987047331399694" font-family="Helvetica, Segoe UI Emoji" font-size="22.81152368894309px" fill="#1e1e1e" text-anchor="middle" style="white-space: pre;" direction="ltr" dominant-baseline="alphabetic">createSession()</text></g><g mask="url(#mask-LEeVVHsGbS3XRmL3Fdmjz)" stroke-linecap="round"><g transform="translate(389.2415813286789 186.7893085893088) rotate(0 122.61193982806913 0)"><path d="M0.46 0.19 C41.42 0.19, 205.61 0.66, 246.24 0.46 M-0.76 -0.75 C40.08 -1.17, 204.59 -1.51, 245.83 -1.41" stroke="#1e1e1e" stroke-width="2" fill="none"></path></g><g transform="translate(389.2415813286789 186.7893085893088) rotate(0 122.61193982806913 0)"><path d="M222.34 7.14 C230.63 5.83, 239.1 -0.38, 245.83 -1.41 M222.34 7.14 C226.86 4.25, 232.37 2.86, 245.83 -1.41" stroke="#1e1e1e" stroke-width="2" fill="none"></path></g><g transform="translate(389.2415813286789 186.7893085893088) rotate(0 122.61193982806913 0)"><path d="M222.33 -9.96 C230.7 -5.44, 239.17 -5.82, 245.83 -1.41 M222.33 -9.96 C226.96 -9.12, 232.47 -6.76, 245.83 -1.41" stroke="#1e1e1e" stroke-width="2" fill="none"></path></g></g><mask id="mask-LEeVVHsGbS3XRmL3Fdmjz"><rect x="0" y="0" fill="#fff" width="734.4654609848171" height="286.7893085893088"></rect><rect x="439.5922143940527" y="173.67268246816639" fill="#000" width="144.52261352539062" height="26.233252242284554" opacity="1"></rect></mask><g transform="translate(439.5922143940527 173.67268246816639) rotate(0 72.38924704831089 12.656934596459678)"><text x="72.26130676269531" y="20.987047331399694" font-family="Helvetica, Segoe UI Emoji" font-size="22.81152368894309px" fill="#1e1e1e" text-anchor="middle" style="white-space: pre;" direction="ltr" dominant-baseline="alphabetic">new Session()</text></g><g mask="url(#mask-pXpfeUwkfBFBJ3kjgMsBL)" stroke-linecap="round"><g transform="translate(637.8871895381585 243.81811781166698) rotate(0 -122.6119398280691 0)"><path d="M1.02 0.46 C-40.09 0.27, -205.26 -0.95, -246.18 -0.98" stroke="#1e1e1e" stroke-width="2.5" fill="none" stroke-dasharray="1.5 8"></path></g><g transform="translate(637.8871895381585 243.81811781166698) rotate(0 -122.6119398280691 0)"><path d="M-222.65 -9.42 C-229.82 -7.97, -240.18 -2.31, -246.18 -0.98" stroke="#1e1e1e" stroke-width="2.5" fill="none" stroke-dasharray="1.5 6"></path></g><g transform="translate(637.8871895381585 243.81811781166698) rotate(0 -122.6119398280691 0)"><path d="M-222.73 7.68 C-229.9 3.35, -240.23 3.22, -246.18 -0.98" stroke="#1e1e1e" stroke-width="2.5" fill="none" stroke-dasharray="1.5 6"></path></g></g><mask id="mask-pXpfeUwkfBFBJ3kjgMsBL"><rect x="0" y="0" fill="#fff" width="983.1110691942968" height="343.818117811667"></rect><rect x="459.6113169097964" y="230.70149169052456" fill="#000" width="111.32786560058594" height="26.233252242284554" opacity="1"></rect></mask><g transform="translate(459.6113169097964 230.70149169052456) rotate(0 55.69254095666116 12.860942167454823)"><text x="55.66393280029297" y="20.987047331399694" font-family="Helvetica, Segoe UI Emoji" font-size="22.81152368894309px" fill="#1e1e1e" text-anchor="middle" style="white-space: pre;" direction="ltr" dominant-baseline="alphabetic">새 세션 반환</text></g><g mask="url(#mask-rRHk5zZPevhQVixDpz_sN)" stroke-linecap="round"><g transform="translate(385.8198527753374 300.84692703402425) rotate(0 -142.5720230558943 0)"><path d="M-0.96 -0.98 C-48.53 -1, -236.95 0.36, -284.42 0.33" stroke="#1e1e1e" stroke-width="2.5" fill="none" stroke-dasharray="1.5 8"></path></g><g transform="translate(385.8198527753374 300.84692703402425) rotate(0 -142.5720230558943 0)"><path d="M-260.96 -8.3 C-271.58 -3.97, -278.42 -2.97, -284.42 0.33" stroke="#1e1e1e" stroke-width="2.5" fill="none" stroke-dasharray="1.5 6"></path></g><g transform="translate(385.8198527753374 300.84692703402425) rotate(0 -142.5720230558943 0)"><path d="M-260.9 8.8 C-271.61 6.55, -278.48 0.97, -284.42 0.33" stroke="#1e1e1e" stroke-width="2.5" fill="none" stroke-dasharray="1.5 6"></path></g></g><mask id="mask-rRHk5zZPevhQVixDpz_sN"><rect x="0" y="0" fill="#fff" width="770.963898887126" height="400.84692703402425"></rect><rect x="200.61788587178683" y="287.73030091288183" fill="#000" width="85.2598876953125" height="26.233252242284554" opacity="1"></rect></mask><g transform="translate(200.61788587178683 287.73030091288183) rotate(0 42.509815395995986 12.796247930119534)"><text x="42.62994384765625" y="20.987047331399694" font-family="Helvetica, Segoe UI Emoji" font-size="22.81152368894309px" fill="#1e1e1e" text-anchor="middle" style="white-space: pre;" direction="ltr" dominant-baseline="alphabetic">세션 반환</text></g><g mask="url(#mask-DzEjzFjMwOkoHPHfZJ-qe)" stroke-linecap="round"><g transform="translate(97.25407811020733 357.8757362563824) rotate(0 142.5720230558943 0)"><path d="M0.72 0.33 C48.29 0.31, 237.1 -1, 284.47 -1.15 M-0.36 -0.54 C47.69 -0.38, 239.43 -0.39, 286.83 -0.22" stroke="#1e1e1e" stroke-width="2" fill="none"></path></g><g transform="translate(97.25407811020733 357.8757362563824) rotate(0 142.5720230558943 0)"><path d="M263.32 8.29 C269.12 5.16, 271.81 4.04, 286.83 -0.22 M263.32 8.29 C269.26 6.58, 275.85 3.8, 286.83 -0.22" stroke="#1e1e1e" stroke-width="2" fill="none"></path></g><g transform="translate(97.25407811020733 357.8757362563824) rotate(0 142.5720230558943 0)"><path d="M263.35 -8.81 C269 -8.18, 271.69 -5.54, 286.83 -0.22 M263.35 -8.81 C269.11 -6.2, 275.69 -4.66, 286.83 -0.22" stroke="#1e1e1e" stroke-width="2" fill="none"></path></g></g><mask id="mask-DzEjzFjMwOkoHPHfZJ-qe"><rect x="0" y="0" fill="#fff" width="482.39812422199594" height="457.8757362563824"></rect><rect x="127.61948190340632" y="344.75911013524" fill="#000" width="224.41323852539062" height="26.233252242284554" opacity="1"></rect></mask><g transform="translate(127.61948190340632 344.75911013524) rotate(0 112.8676648467779 12.707103890591725)"><text x="112.20661926269531" y="20.987047331399694" font-family="Helvetica, Segoe UI Emoji" font-size="22.81152368894309px" fill="#1e1e1e" text-anchor="middle" style="white-space: pre;" direction="ltr" dominant-baseline="alphabetic">getSession(sessionId)</text></g><g mask="url(#mask-Ihk1veUySTslz0Wb2RVnv)" stroke-linecap="round"><g transform="translate(388.1010051442317 414.33425738651613) rotate(0 38.38045789348891 11.968169504021262)"><path d="M-0.67 -1.15 C10.67 -3.11, 57.37 -17.5, 68.78 -11.4 C80.2 -5.31, 79.1 29.41, 67.81 35.42 C56.52 41.42, 12.03 26.54, 1.03 24.62 M1.17 0.85 C12.28 -0.98, 56.24 -15.59, 67.72 -10.16 C79.2 -4.74, 81.16 27.97, 70.07 33.4 C58.99 38.83, 12.78 23.94, 1.22 22.41" stroke="#1e1e1e" stroke-width="2" fill="none"></path></g><g transform="translate(388.1010051442317 414.33425738651613) rotate(0 38.38045789348891 11.968169504021262)"><path d="M26.03 19.3 C15.18 19.91, 7.23 19.41, 1.22 22.41 M26.03 19.3 C17.85 20.47, 9.11 21.41, 1.22 22.41" stroke="#1e1e1e" stroke-width="2" fill="none"></path></g><g transform="translate(388.1010051442317 414.33425738651613) rotate(0 38.38045789348891 11.968169504021262)"><path d="M22.23 35.97 C12.71 30.61, 6.12 24.1, 1.22 22.41 M22.23 35.97 C15.4 31.25, 8 26.31, 1.22 22.41" stroke="#1e1e1e" stroke-width="2" fill="none"></path></g></g><mask id="mask-Ihk1veUySTslz0Wb2RVnv"><rect x="0" y="0" fill="#fff" width="557.1058643032845" height="559.9573047644024"></rect><rect x="371.71751183528664" y="413.9232732064638" fill="#000" width="186.34463500976562" height="26.233252242284554" opacity="1"></rect></mask><g transform="translate(371.7175118352867 413.9232732064638) rotate(0 54.7639512024339 12.379153684073572)"><text x="93.17231750488281" y="20.987047331399694" font-family="Helvetica, Segoe UI Emoji" font-size="22.81152368894309px" fill="#1e1e1e" text-anchor="middle" style="white-space: pre;" direction="ltr" dominant-baseline="alphabetic">isExpired(session)</text></g><g mask="url(#mask-hCf3GrMtrC_PI-ilncloL)" stroke-linecap="round"><g transform="translate(388.1010051442317 556.9062804424107) rotate(0 37.91773201065391 11.855305411676682)"><path d="M-0.22 -0.57 C11.19 -2.08, 56.29 -16.21, 67.81 -10.21 C79.33 -4.2, 79.9 29.78, 68.9 35.46 C57.9 41.14, 13 25.84, 1.81 23.87 M-1.8 1.75 C10.02 -0.01, 58.24 -17.29, 69.89 -12 C81.54 -6.71, 79.32 27.31, 68.07 33.46 C56.83 39.62, 13.65 26.52, 2.42 24.94" stroke="#1e1e1e" stroke-width="2" fill="none"></path></g><g transform="translate(388.1010051442317 556.9062804424107) rotate(0 37.91773201065391 11.855305411676682)"><path d="M27.19 21.58 C20.17 20.36, 16.12 22.99, 2.42 24.94 M27.19 21.58 C18.96 22.54, 10.14 24, 2.42 24.94" stroke="#1e1e1e" stroke-width="2" fill="none"></path></g><g transform="translate(388.1010051442317 556.9062804424107) rotate(0 37.91773201065391 11.855305411676682)"><path d="M23.55 38.29 C17.58 33, 14.42 31.56, 2.42 24.94 M23.55 38.29 C16.52 33.31, 9 28.83, 2.42 24.94" stroke="#1e1e1e" stroke-width="2" fill="none"></path></g></g><mask id="mask-hCf3GrMtrC_PI-ilncloL"><rect x="0" y="0" fill="#fff" width="557.1058643032845" height="702.5293278202969"></rect><rect x="340.0152693911594" y="543.6987829047794" fill="#000" width="249.77374267578125" height="52.46650448456911" opacity="1"></rect></mask><g transform="translate(340.01526939115934 543.6987829047794) rotate(0 86.00346776372626 25.06280294930798)"><text x="124.88687133789062" y="20.987047331399694" font-family="Helvetica, Segoe UI Emoji" font-size="22.81152368894309px" fill="#1e1e1e" text-anchor="middle" style="white-space: pre;" direction="ltr" dominant-baseline="alphabetic">invalidateSession(sessio</text><text x="124.88687133789062" y="47.220299573684244" font-family="Helvetica, Segoe UI Emoji" font-size="22.81152368894309px" fill="#1e1e1e" text-anchor="middle" style="white-space: pre;" direction="ltr" dominant-baseline="alphabetic">nId)</text></g><g mask="url(#mask-WiHnuG5cRyzgSEK60pRX_)" stroke-linecap="round"><g transform="translate(385.8198527753374 648.7226632904067) rotate(0 -142.5720230558943 0)"><path d="M-1.2 0.63 C-48.7 0.83, -238.04 0.79, -285.25 0.67" stroke="#1e1e1e" stroke-width="2.5" fill="none" stroke-dasharray="1.5 8"></path></g><g transform="translate(385.8198527753374 648.7226632904067) rotate(0 -142.5720230558943 0)"><path d="M-261.75 -7.86 C-267.36 -5.87, -273.91 -2.17, -285.25 0.67" stroke="#1e1e1e" stroke-width="2.5" fill="none" stroke-dasharray="1.5 6"></path></g><g transform="translate(385.8198527753374 648.7226632904067) rotate(0 -142.5720230558943 0)"><path d="M-261.77 9.24 C-267.29 6.41, -273.84 5.3, -285.25 0.67" stroke="#1e1e1e" stroke-width="2.5" fill="none" stroke-dasharray="1.5 6"></path></g></g><mask id="mask-WiHnuG5cRyzgSEK60pRX_"><rect x="0" y="0" fill="#fff" width="770.963898887126" height="748.7226632904067"></rect><rect x="202.59505872334933" y="635.6060371692643" fill="#000" width="81.3055419921875" height="26.233252242284554" opacity="1"></rect></mask><g transform="translate(202.59505872334933 635.6060371692643) rotate(0 39.999597204849124 13.81530914950963)"><text x="40.65277099609375" y="20.987047331399694" font-family="Helvetica, Segoe UI Emoji" font-size="22.81152368894309px" fill="#1e1e1e" text-anchor="middle" style="white-space: pre;" direction="ltr" dominant-baseline="alphabetic">null 반환</text></g><g mask="url(#mask-ahwWx_P939zgp5dcGS_iQ)" stroke-linecap="round"><g transform="translate(389.2415813286789 757.077400812886) rotate(0 122.61193982806913 0)"><path d="M-0.11 0.67 C41.07 0.55, 204.9 0.08, 245.9 -0.08 M-1.62 -0.03 C39.56 0, 204.12 1.26, 245.3 1.42" stroke="#1e1e1e" stroke-width="2" fill="none"></path></g><g transform="translate(389.2415813286789 757.077400812886) rotate(0 122.61193982806913 0)"><path d="M221.76 9.83 C227.54 9.29, 231.01 7.61, 245.3 1.42 M221.76 9.83 C228.97 8.07, 234.99 4.28, 245.3 1.42" stroke="#1e1e1e" stroke-width="2" fill="none"></path></g><g transform="translate(389.2415813286789 757.077400812886) rotate(0 122.61193982806913 0)"><path d="M221.86 -7.27 C227.71 -4.39, 231.16 -2.65, 245.3 1.42 M221.86 -7.27 C229.14 -4.28, 235.13 -3.32, 245.3 1.42" stroke="#1e1e1e" stroke-width="2" fill="none"></path></g></g><mask id="mask-ahwWx_P939zgp5dcGS_iQ"><rect x="0" y="0" fill="#fff" width="734.4654609848171" height="857.077400812886"></rect><rect x="468.7618005756933" y="743.9607746917436" fill="#000" width="86.18344116210938" height="26.233252242284554" opacity="1"></rect></mask><g transform="translate(468.7618005756933 743.9607746917441) rotate(0 42.61663548376407 13.786555416063948)"><text x="43.09172058105469" y="20.987047331399694" font-family="Helvetica, Segoe UI Emoji" font-size="22.81152368894309px" fill="#1e1e1e" text-anchor="middle" style="white-space: pre;" direction="ltr" dominant-baseline="alphabetic">access()</text></g><g mask="url(#mask-6dEfWbTzXX16cbGQnVjQH)" stroke-linecap="round"><g transform="translate(637.8871895381585 814.1062100352442) rotate(0 -122.6119398280691 0)"><path d="M0.67 -0.08 C-40.07 -0.23, -203.68 -0.29, -244.55 -0.27" stroke="#1e1e1e" stroke-width="2.5" fill="none" stroke-dasharray="1.5 8"></path></g><g transform="translate(637.8871895381585 814.1062100352442) rotate(0 -122.6119398280691 0)"><path d="M-221.06 -8.82 C-227.98 -5.07, -235.12 -2.6, -244.55 -0.27" stroke="#1e1e1e" stroke-width="2.5" fill="none" stroke-dasharray="1.5 6"></path></g><g transform="translate(637.8871895381585 814.1062100352442) rotate(0 -122.6119398280691 0)"><path d="M-221.06 8.28 C-228.07 7.05, -235.22 4.55, -244.55 -0.27" stroke="#1e1e1e" stroke-width="2.5" fill="none" stroke-dasharray="1.5 6"></path></g></g><mask id="mask-6dEfWbTzXX16cbGQnVjQH"><rect x="0" y="0" fill="#fff" width="983.1110691942968" height="914.1062100352442"></rect><rect x="400.25613044739407" y="800.9895839141018" fill="#000" width="230.03823852539062" height="26.233252242284554" opacity="1"></rect></mask><g transform="translate(400.25613044739407 800.9895839141022) rotate(0 115.69288669936361 12.942037741898048)"><text x="115.01911926269531" y="20.987047331399694" font-family="Helvetica, Segoe UI Emoji" font-size="22.81152368894309px" fill="#1e1e1e" text-anchor="middle" style="white-space: pre;" direction="ltr" dominant-baseline="alphabetic">lastAccessedTime 갱신</text></g><g mask="url(#mask-DfyLjDCRXVsq6inKiuA0b)" stroke-linecap="round"><g transform="translate(385.8198527753374 871.1350192576015) rotate(0 -142.5720230558943 0)"><path d="M0.67 -0.27 C-46.85 -0.24, -236.98 -0.1, -284.48 0.06" stroke="#1e1e1e" stroke-width="2.5" fill="none" stroke-dasharray="1.5 8"></path></g><g transform="translate(385.8198527753374 871.1350192576015) rotate(0 -142.5720230558943 0)"><path d="M-261 -8.53 C-269.81 -4.23, -277.63 -0.85, -284.48 0.06" stroke="#1e1e1e" stroke-width="2.5" fill="none" stroke-dasharray="1.5 6"></path></g><g transform="translate(385.8198527753374 871.1350192576015) rotate(0 -142.5720230558943 0)"><path d="M-260.97 8.57 C-269.78 6.78, -277.61 4.07, -284.48 0.06" stroke="#1e1e1e" stroke-width="2.5" fill="none" stroke-dasharray="1.5 6"></path></g></g><mask id="mask-DfyLjDCRXVsq6inKiuA0b"><rect x="0" y="0" fill="#fff" width="770.963898887126" height="971.1350192576015"></rect><rect x="200.61788587178683" y="858.018393136459" fill="#000" width="85.2598876953125" height="26.233252242284554" opacity="1"></rect></mask><g transform="translate(200.61788587178683 858.0183931364586) rotate(0 43.30033180825413 13.013872141057163)"><text x="42.62994384765625" y="20.987047331399694" font-family="Helvetica, Segoe UI Emoji" font-size="22.81152368894309px" fill="#1e1e1e" text-anchor="middle" style="white-space: pre;" direction="ltr" dominant-baseline="alphabetic">세션 반환</text></g><g mask="url(#mask-iJgwZ1Mxvx09kpSAClxhq)" stroke-linecap="round"><g transform="translate(97.25407811020733 939.5695903244309) rotate(0 268.6056914373049 0)"><path d="M0.67 0.06 C90.23 0.22, 448.61 0.89, 538.07 0.7 M-0.44 -0.95 C88.98 -1.11, 448.03 -1.16, 537.57 -1.05" stroke="#1e1e1e" stroke-width="2" fill="none"></path></g><g transform="translate(97.25407811020733 939.5695903244309) rotate(0 268.6056914373049 0)"><path d="M514.08 7.49 C522.56 5.75, 532 1.66, 537.57 -1.05 M514.08 7.49 C519.54 5.51, 523.77 3.23, 537.57 -1.05" stroke="#1e1e1e" stroke-width="2" fill="none"></path></g><g transform="translate(97.25407811020733 939.5695903244309) rotate(0 268.6056914373049 0)"><path d="M514.08 -9.61 C522.53 -5.26, 531.97 -3.27, 537.57 -1.05 M514.08 -9.61 C519.48 -7.94, 523.7 -6.58, 537.57 -1.05" stroke="#1e1e1e" stroke-width="2" fill="none"></path></g></g><mask id="mask-iJgwZ1Mxvx09kpSAClxhq"><rect x="0" y="0" fill="#fff" width="734.4654609848171" height="1039.569590324431"></rect><rect x="250.0668236856958" y="926.4529642032885" fill="#000" width="231.5858917236328" height="26.233252242284554" opacity="1"></rect></mask><g transform="translate(250.0668236856958 926.452964203288) rotate(0 116.00125718068324 12.930064826136913)"><text x="115.7929458618164" y="20.987047331399694" font-family="Helvetica, Segoe UI Emoji" font-size="22.81152368894309px" fill="#1e1e1e" text-anchor="middle" style="white-space: pre;" direction="ltr" dominant-baseline="alphabetic">setAttribute(key, value)</text></g><g mask="url(#mask--RvIgVf3GpJfCnkPZWmFm)" stroke-linecap="round"><g transform="translate(97.25407811020733 996.5983995467882) rotate(0 268.6056914373049 0)"><path d="M0.86 0.7 C90.32 0.52, 448.13 -1, 537.44 -1.04 M-0.15 0.03 C89.11 -0.05, 447.3 0.23, 536.61 -0.05" stroke="#1e1e1e" stroke-width="2" fill="none"></path></g><g transform="translate(97.25407811020733 996.5983995467882) rotate(0 268.6056914373049 0)"><path d="M513.12 8.52 C522.64 5.68, 528.09 1.42, 536.61 -0.05 M513.12 8.52 C520.62 5.12, 527.88 3.44, 536.61 -0.05" stroke="#1e1e1e" stroke-width="2" fill="none"></path></g><g transform="translate(97.25407811020733 996.5983995467882) rotate(0 268.6056914373049 0)"><path d="M513.11 -8.58 C522.64 -5.34, 528.09 -3.52, 536.61 -0.05 M513.11 -8.58 C520.68 -6.23, 527.95 -2.16, 536.61 -0.05" stroke="#1e1e1e" stroke-width="2" fill="none"></path></g></g><mask id="mask--RvIgVf3GpJfCnkPZWmFm"><rect x="0" y="0" fill="#fff" width="734.4654609848171" height="1096.5983995467882"></rect><rect x="282.18790980630126" y="983.4817734256458" fill="#000" width="167.34371948242188" height="26.233252242284554" opacity="1"></rect></mask><g transform="translate(282.18790980630126 983.4817734256462) rotate(0 83.70888080563398 12.94819914739719)"><text x="83.67185974121094" y="20.987047331399694" font-family="Helvetica, Segoe UI Emoji" font-size="22.81152368894309px" fill="#1e1e1e" text-anchor="middle" style="white-space: pre;" direction="ltr" dominant-baseline="alphabetic">getAttribute(key)</text></g><g mask="url(#mask-WNVYbTCAwNCowsdxcu8wx)" stroke-linecap="round"><g transform="translate(97.25407811020733 1053.6272087691464) rotate(0 268.6056914373049 0)"><path d="M0.23 -1.04 C89.53 -1.09, 447.13 0.28, 536.71 0.44 M-1.12 1.03 C87.92 0.55, 445.77 -1.49, 535.5 -1.46" stroke="#1e1e1e" stroke-width="2" fill="none"></path></g><g transform="translate(97.25407811020733 1053.6272087691464) rotate(0 268.6056914373049 0)"><path d="M512.03 7.17 C518.96 3.08, 530.14 1.56, 535.5 -1.46 M512.03 7.17 C517.93 5.43, 525.42 2.49, 535.5 -1.46" stroke="#1e1e1e" stroke-width="2" fill="none"></path></g><g transform="translate(97.25407811020733 1053.6272087691464) rotate(0 268.6056914373049 0)"><path d="M511.98 -9.94 C519.03 -7.67, 530.23 -2.83, 535.5 -1.46 M511.98 -9.94 C517.83 -6.67, 525.34 -4.6, 535.5 -1.46" stroke="#1e1e1e" stroke-width="2" fill="none"></path></g></g><mask id="mask-WNVYbTCAwNCowsdxcu8wx"><rect x="0" y="0" fill="#fff" width="734.4654609848171" height="1153.6272087691464"></rect><rect x="260.0127694254419" y="1040.510582648004" fill="#000" width="211.69400024414062" height="26.233252242284554" opacity="1"></rect></mask><g transform="translate(260.0127694254419 1040.5105826480044) rotate(0 105.03812399368738 12.899823880791246)"><text x="105.84700012207031" y="20.987047331399694" font-family="Helvetica, Segoe UI Emoji" font-size="22.81152368894309px" fill="#1e1e1e" text-anchor="middle" style="white-space: pre;" direction="ltr" dominant-baseline="alphabetic">removeAttribute(key)</text></g><g mask="url(#mask-b3_2p1hZ2pbDMWmF8Uey6)" stroke-linecap="round"><g transform="translate(97.25407811020733 1110.6560179915045) rotate(0 268.6056914373049 0)"><path d="M-0.5 0.44 C89.08 0.59, 448.17 0.09, 537.72 -0.09 M1.43 -0.38 C90.88 0.06, 447.98 1.28, 537.04 1.4" stroke="#1e1e1e" stroke-width="2" fill="none"></path></g><g transform="translate(97.25407811020733 1110.6560179915045) rotate(0 268.6056914373049 0)"><path d="M513.53 9.89 C521.82 8.13, 528.44 3.85, 537.04 1.4 M513.53 9.89 C519.04 7.89, 524.63 5.6, 537.04 1.4" stroke="#1e1e1e" stroke-width="2" fill="none"></path></g><g transform="translate(97.25407811020733 1110.6560179915045) rotate(0 268.6056914373049 0)"><path d="M513.57 -7.21 C521.7 -3.52, 528.31 -2.35, 537.04 1.4 M513.57 -7.21 C518.9 -4.99, 524.48 -3.06, 537.04 1.4" stroke="#1e1e1e" stroke-width="2" fill="none"></path></g></g><mask id="mask-b3_2p1hZ2pbDMWmF8Uey6"><rect x="0" y="0" fill="#fff" width="734.4654609848171" height="1210.6560179915045"></rect><rect x="333.54377528481695" y="1097.5393918703621" fill="#000" width="64.63198852539062" height="26.233252242284554" opacity="1"></rect></mask><g transform="translate(333.5437752848169 1097.5393918703626) rotate(0 32.319701934978355 13.626436156371028)"><text x="32.31599426269531" y="20.987047331399694" font-family="Helvetica, Segoe UI Emoji" font-size="22.81152368894309px" fill="#1e1e1e" text-anchor="middle" style="white-space: pre;" direction="ltr" dominant-baseline="alphabetic">clear()</text></g><g mask="url(#mask-VqWCQAat-5dTkPr8PuVHh)" stroke-linecap="round"><g transform="translate(97.25407811020733 1167.6848272138618) rotate(0 142.5720230558943 0)"><path d="M0.51 -0.09 C48.04 -0.27, 237.47 -0.79, 284.71 -0.64 M-0.68 -1.18 C46.7 -1.25, 235.72 0.55, 283.53 0.56" stroke="#1e1e1e" stroke-width="2" fill="none"></path></g><g transform="translate(97.25407811020733 1167.6848272138618) rotate(0 142.5720230558943 0)"><path d="M260 8.99 C265.89 5.99, 271.05 2.54, 283.53 0.56 M260 8.99 C268.07 5.9, 276.82 2.8, 283.53 0.56" stroke="#1e1e1e" stroke-width="2" fill="none"></path></g><g transform="translate(97.25407811020733 1167.6848272138618) rotate(0 142.5720230558943 0)"><path d="M260.09 -8.11 C266.02 -6.7, 271.16 -5.73, 283.53 0.56 M260.09 -8.11 C268.06 -4.94, 276.78 -1.77, 283.53 0.56" stroke="#1e1e1e" stroke-width="2" fill="none"></path></g></g><mask id="mask-VqWCQAat-5dTkPr8PuVHh"><rect x="0" y="0" fill="#fff" width="482.39812422199594" height="1267.6848272138618"></rect><rect x="114.93922982821101" y="1141.4515749715774" fill="#000" width="249.77374267578125" height="52.46650448456911" opacity="1"></rect></mask><g transform="translate(114.93922982821101 1141.451574971577) rotate(0 124.32850854884833 25.923051530587372)"><text x="124.88687133789062" y="20.987047331399694" font-family="Helvetica, Segoe UI Emoji" font-size="22.81152368894309px" fill="#1e1e1e" text-anchor="middle" style="white-space: pre;" direction="ltr" dominant-baseline="alphabetic">invalidateSession(sessio</text><text x="124.88687133789062" y="47.220299573684244" font-family="Helvetica, Segoe UI Emoji" font-size="22.81152368894309px" fill="#1e1e1e" text-anchor="middle" style="white-space: pre;" direction="ltr" dominant-baseline="alphabetic">nId)</text></g><g mask="url(#mask-dUC-DRqiNtHxKkEBVyjjg)" stroke-linecap="round"><g transform="translate(388.1010051442317 1224.143348343996) rotate(0 38.414624588316684 12.527179942299881)"><path d="M-0.43 -0.64 C10.78 -2.3, 56.31 -15.99, 67.81 -10.04 C79.3 -4.09, 79.78 29.41, 68.56 35.09 C57.33 40.76, 11.77 25.87, 0.44 24.02 M1.54 1.64 C13.06 -0.35, 58.89 -17.57, 69.89 -11.74 C80.89 -5.92, 79.15 30.41, 67.55 36.56 C55.96 42.71, 11.16 27.19, 0.32 25.16" stroke="#1e1e1e" stroke-width="2" fill="none"></path></g><g transform="translate(388.1010051442317 1224.143348343996) rotate(0 38.414624588316684 12.527179942299881)"><path d="M25.22 22.89 C15.62 21.58, 9.49 23.61, 0.32 25.16 M25.22 22.89 C16.67 23.69, 8.96 24.69, 0.32 25.16" stroke="#1e1e1e" stroke-width="2" fill="none"></path></g><g transform="translate(388.1010051442317 1224.143348343996) rotate(0 38.414624588316684 12.527179942299881)"><path d="M20.85 39.43 C12.77 32.47, 8.13 28.83, 0.32 25.16 M20.85 39.43 C13.82 34.84, 7.53 30.48, 0.32 25.16" stroke="#1e1e1e" stroke-width="2" fill="none"></path></g></g><mask id="mask-dUC-DRqiNtHxKkEBVyjjg"><rect x="0" y="0" fill="#fff" width="557.1058643032845" height="1369.7663957218822"></rect><rect x="354.90622907427434" y="1223.9828944275364" fill="#000" width="219.80360412597656" height="26.233252242284554" opacity="1"></rect></mask><g transform="translate(354.9062290742744 1223.9828944275364) rotate(0 71.60940065827398 12.687633858759455)"><text x="109.90180206298828" y="20.987047331399694" font-family="Helvetica, Segoe UI Emoji" font-size="22.81152368894309px" fill="#1e1e1e" text-anchor="middle" style="white-space: pre;" direction="ltr" dominant-baseline="alphabetic">sessions에서 세션 제거</text></g><g mask="url(#mask-dmpY3vfnrGERlFFx3ci7u)" stroke-linecap="round"><g transform="translate(388.1010051442317 1371.2776761376795) rotate(0 38.322081498691944 11.951063303652973)"><path d="M-1.2 0.8 C10.3 -0.85, 56.97 -16.21, 68.56 -10.54 C80.14 -4.86, 79.63 29.1, 68.31 34.86 C56.98 40.61, 11.81 25.76, 0.6 24 M0.37 0.17 C11.71 -1.81, 55.63 -18.51, 67.37 -12.5 C79.11 -6.49, 81.97 29.94, 70.83 36.21 C59.7 42.48, 12.45 27.02, 0.57 25.13" stroke="#1e1e1e" stroke-width="2" fill="none"></path></g><g transform="translate(388.1010051442317 1371.2776761376795) rotate(0 38.322081498691944 11.951063303652973)"><path d="M25.41 22.32 C20.17 22.06, 12.79 22.39, 0.57 25.13 M25.41 22.32 C17.74 23.5, 9.89 24.21, 0.57 25.13" stroke="#1e1e1e" stroke-width="2" fill="none"></path></g><g transform="translate(388.1010051442317 1371.2776761376795) rotate(0 38.322081498691944 11.951063303652973)"><path d="M21.41 38.95 C17.31 34.34, 10.99 30.29, 0.57 25.13 M21.41 38.95 C15.03 35.04, 8.41 30.67, 0.57 25.13" stroke="#1e1e1e" stroke-width="2" fill="none"></path></g></g><mask id="mask-dmpY3vfnrGERlFFx3ci7u"><rect x="0" y="0" fill="#fff" width="557.1058643032845" height="1516.9007235155657"></rect><rect x="345.30553279946986" y="1370.872218558281" fill="#000" width="239.61618041992188" height="26.233252242284554" opacity="1"></rect></mask><g transform="translate(345.3055327994699 1370.8722185582806) rotate(0 81.11755384345372 12.356520883051871)"><text x="119.80809020996094" y="20.987047331399694" font-family="Helvetica, Segoe UI Emoji" font-size="22.81152368894309px" fill="#1e1e1e" text-anchor="middle" style="white-space: pre;" direction="ltr" dominant-baseline="alphabetic">cleanExpiredSessions()</text></g><g stroke-linecap="round"><g transform="translate(82.9968758046179 471.93335470109787) rotate(0 284.57375801956505 0)"><path d="M0 0 C114.1 0.39, 227.85 0.49, 569.15 0" stroke="#adb5bd" stroke-width="2.5" fill="none" stroke-dasharray="1.5 8"></path></g></g><mask></mask><g stroke-linecap="round"><g transform="translate(652.1443918437479 471.93335470109787) rotate(0 0 211.00659412272353)"><path d="M0 0 C0.62 110.31, 0.6 221.51, 0 422.01" stroke="#adb5bd" stroke-width="2.5" fill="none" stroke-dasharray="1.5 8"></path></g></g><mask></mask><g stroke-linecap="round"><g transform="translate(82.9968758046179 893.9465429465449) rotate(0 284.57375801956505 0)"><path d="M0 0 C137.61 0.97, 275.41 0.77, 569.15 0" stroke="#adb5bd" stroke-width="2.5" fill="none" stroke-dasharray="1.5 8"></path></g></g><mask></mask><g stroke-linecap="round"><g transform="translate(82.9968758046179 471.93335470109787) rotate(0 0 211.00659412272353)"><path d="M0 0 C0.42 107.36, 0.27 216, 0 422.01" stroke="#adb5bd" stroke-width="2.5" fill="none" stroke-dasharray="1.5 8"></path></g></g><mask></mask><g stroke-linecap="round"><g transform="translate(82.9968758046179 677.2370679015853) rotate(0 284.57375801956505 0)"><path d="M0 0 C167.35 1.18, 334.53 0.37, 569.15 0" stroke="#adb5bd" stroke-width="2.5" fill="none" stroke-dasharray="1.5 8"></path></g></g><mask></mask><g transform="translate(347.1694684000285 478.4346389524462) rotate(0 58.83654311332643 13.11662612114219)"><text x="0" y="20.987047331399694" font-family="Helvetica, Segoe UI Emoji" font-size="22.81152368894309px" fill="#1e1e1e" text-anchor="start" style="white-space: pre;" direction="ltr" dominant-baseline="alphabetic">[세션 만료됨]</text></g><g transform="translate(318.65506378884965 683.7383521529337) rotate(0 58.83654311332643 13.11662612114219)"><text x="0" y="20.987047331399694" font-family="Helvetica, Segoe UI Emoji" font-size="22.81152368894309px" fill="#1e1e1e" text-anchor="start" style="white-space: pre;" direction="ltr" dominant-baseline="alphabetic">[세션 유효함]</text></g><g stroke-linecap="round" transform="translate(82.9968758046179 471.93335470109787) rotate(0 19.389795135601616 18.819507043378053)"><path d="M-0.2 0.64 L39.42 -0.8 L38.02 37.94 L0.43 37.55" stroke="none" stroke-width="0" fill="#e9ecef"></path><path d="M0 0 C9.61 -1.01, 20.58 -0.77, 38.78 0 M0 0 C9.19 -0.16, 18.77 -0.24, 38.78 0 M38.78 0 C39.3 15.64, 38.69 29.83, 38.78 37.64 M38.78 0 C38.37 9.12, 38.89 19.28, 38.78 37.64 M38.78 37.64 C23.62 37.51, 9.17 38.18, 0 37.64 M38.78 37.64 C30.1 37.4, 21.66 38.07, 0 37.64 M0 37.64 C1.17 26.63, 0.15 15.29, 0 0 M0 37.64 C-0.28 26.25, -0.02 15.03, 0 0" stroke="#adb5bd" stroke-width="2" fill="none"></path></g><g transform="translate(90.34126841336405 477.6362356233335) rotate(0 12.045402526855469 13.11662612114219)"><text x="12.045402526855469" y="20.987047331399694" font-family="Helvetica, Segoe UI Emoji" font-size="22.81152368894309px" fill="#000" text-anchor="middle" style="white-space: pre;" direction="ltr" dominant-baseline="alphabetic">alt</text></g></svg>