<svg version="1.1" xmlns="http://www.w3.org/2000/svg" viewBox="0 0 1508.905886702738 937.9409425023407" width="3017.811773405476" height="1875.8818850046814">
    <!-- svg-source:excalidraw -->

    <defs>
        <style class="style-fonts">
            @font-face {
            font-family: "Virgil";
            src: url("https://excalidraw.com/Virgil.woff2");
            }
            @font-face {
            font-family: "Cascadia";
            src: url("https://excalidraw.com/Cascadia.woff2");
            }
            @font-face {
            font-family: "Assistant";
            src: url("https://excalidraw.com/Assistant-Regular.woff2");
            }
        </style>

    </defs>
    <rect x="0" y="0" width="1508.905886702738" height="937.9409425023407" fill="#ffffff"></rect><g stroke-linecap="round" transform="translate(10 10) rotate(0 132.7117289576938 43.22091947405454)"><path d="M1.83 3.6 L264.91 -1.92 L267.75 85.15 L0.43 86.99" stroke="none" stroke-width="0" fill="#ffec99"></path><path d="M-2.12 -1.57 C77.31 -3.45, 159.27 -1.56, 264.83 1.41 M-0.67 0.09 C88.38 -1.16, 172.25 -1.15, 265.72 1.35 M267.29 3.78 C266.44 26.63, 269.01 58.3, 261.97 87.52 M263.97 0.79 C263.23 19.35, 266.77 41.98, 264.37 87.13 M263.2 88.5 C179.89 85.37, 98.46 89.42, 0.56 84.39 M265.88 86.14 C184.8 84.05, 101.56 84.65, 1.42 88.01 M2.7 88.57 C-1.83 68.34, -3.22 41.03, 0.82 -0.17 M-0.47 84.71 C-1.89 51.82, 1.11 19.08, -0.3 -1.24" stroke="#1e1e1e" stroke-width="2" fill="none"></path></g><g transform="translate(116.76174726824067 40.720919474054654) rotate(0 25.949981689453125 12.5)"><text x="25.949981689453125" y="17.52" font-family="Virgil, Segoe UI Emoji" font-size="20px" fill="#000" text-anchor="middle" style="white-space: pre;" direction="ltr" dominant-baseline="alphabetic">사용자</text></g><g stroke-linecap="round" transform="translate(10 841.4991035542315) rotate(0 132.7117289576938 43.2209194740546)"><path d="M-0.52 -1.92 L267.75 -1.29 L265.85 86.99 L0.11 84.3" stroke="none" stroke-width="0" fill="#ffec99"></path><path d="M-2.98 -0.17 C99.03 3.8, 200.08 3.5, 266.28 1.78 M1.55 1.41 C94.44 1.17, 191.97 1.1, 265.93 1.57 M264.72 -2.09 C268.11 31.69, 262.77 62.75, 262.85 85.82 M263.5 -1.02 C265.78 26.59, 263.11 51.38, 265.76 86.08 M264.04 84.02 C178.63 90.81, 89.71 87.12, 0.2 86.52 M266.07 85.1 C191.06 84.89, 120.76 87.2, -0.71 87.01 M-1.21 90.38 C-3.77 61.87, -0.35 39.77, 3.76 0 M-1.89 85.88 C1.52 54.23, 0.1 19.26, 0.91 1.8" stroke="#1e1e1e" stroke-width="2" fill="none"></path></g><g transform="translate(116.76174726824067 872.220023028286) rotate(0 25.949981689453125 12.5)"><text x="25.949981689453125" y="17.52" font-family="Virgil, Segoe UI Emoji" font-size="20px" fill="#000" text-anchor="middle" style="white-space: pre;" direction="ltr" dominant-baseline="alphabetic">사용자</text></g><g stroke-linecap="round" transform="translate(436.447022384056 10) rotate(0 132.71172895769382 43.22091947405454)"><path d="M2.33 -1.29 L265.85 0.55 L265.54 84.3 L0.08 88.39" stroke="none" stroke-width="0" fill="#a5d8ff"></path><path d="M-1.3 1.71 C65.86 1.64, 133.76 2.01, 267.36 -1.34 M-1.4 1.42 C81.48 -2.39, 162.87 -2.17, 266.32 0.74 M267.3 0.86 C261.66 35.18, 262.55 67.59, 265.15 83.53 M267.04 1.24 C262.7 30.04, 264.1 58.36, 266.06 85.04 M266.77 88.08 C169.07 81.18, 71.8 83.3, -0.79 87.36 M264.1 85.7 C192.33 84.44, 115.69 83.44, -0.49 87.51 M-2.6 85.12 C1.35 55.73, 4.29 25.36, 3.26 -0.94 M1.11 87.2 C1.33 66.77, 2.54 51.38, -0.26 -0.96" stroke="#1e1e1e" stroke-width="2" fill="none"></path></g><g transform="translate(495.2188175648944 40.720919474054654) rotate(0 73.93993377685547 12.5)"><text x="73.93993377685547" y="17.52" font-family="Virgil, Segoe UI Emoji" font-size="20px" fill="#000" text-anchor="middle" style="white-space: pre;" direction="ltr" dominant-baseline="alphabetic">TemplateEngine</text></g><g stroke-linecap="round" transform="translate(436.447022384056 841.1715283472032) rotate(0 132.71172895769382 43.2209194740546)"><path d="M0.43 0.55 L265.54 -2.15 L265.51 88.39 L3.52 85.53" stroke="none" stroke-width="0" fill="#a5d8ff"></path><path d="M-0.59 1.41 C79.03 -0.49, 158.27 -3.61, 265.61 3.11 M0.3 1.35 C103.75 -2.19, 207.37 -3.02, 266.92 -0.28 M261.97 1.07 C263.66 20.8, 265.96 39.92, 267.01 82.59 M264.37 0.68 C267.16 21.15, 267.46 41.61, 266.73 85.57 M265.98 84.39 C206.31 88.69, 146.01 89.54, -0.61 87.73 M266.84 88.01 C207.66 85.03, 150.83 85.53, 0.84 85.96 M0.82 86.27 C4.88 52, 4.38 16.61, -3.47 -3.77 M-0.3 85.2 C-0.05 64.75, -1.22 38.49, 1.16 -0.64" stroke="#1e1e1e" stroke-width="2" fill="none"></path></g><g transform="translate(495.2188175648944 871.8924478212577) rotate(0 73.93993377685547 12.5)"><text x="73.93993377685547" y="17.52" font-family="Virgil, Segoe UI Emoji" font-size="20px" fill="#000" text-anchor="middle" style="white-space: pre;" direction="ltr" dominant-baseline="alphabetic">TemplateEngine</text></g><g stroke-linecap="round" transform="translate(790.3449662712394 10) rotate(0 132.71172895769382 43.22091947405454)"><path d="M0.11 -2.15 L265.51 1.94 L268.94 85.53 L2.25 86.8" stroke="none" stroke-width="0" fill="#a5d8ff"></path><path d="M0.86 1.78 C95.92 -3.21, 188.17 1.23, 268.24 -2.8 M0.51 1.57 C104.28 -2.84, 208.27 -3.86, 264.6 0.74 M262.85 -0.62 C263.66 24.88, 265.51 51.72, 263.38 89.67 M265.76 -0.36 C265.15 29.88, 265.81 61.69, 263.89 87.29 M265.62 86.52 C171.28 84.64, 78.09 85.01, -2.69 83.79 M264.71 87.01 C197.81 91.68, 132.02 90.14, 1.56 85.41 M3.76 86.45 C2.9 62.43, -3.83 36.52, -1.13 2.22 M0.91 88.24 C0.01 56.27, 1.43 27.37, 0.21 0.27" stroke="#1e1e1e" stroke-width="2" fill="none"></path></g><g transform="translate(845.0867703021754 40.720919474054654) rotate(0 77.96992492675781 12.5)"><text x="77.96992492675781" y="17.52" font-family="Virgil, Segoe UI Emoji" font-size="20px" fill="#000" text-anchor="middle" style="white-space: pre;" direction="ltr" dominant-baseline="alphabetic">TemplateParser</text></g><g stroke-linecap="round" transform="translate(790.3449662712394 841.1715283472032) rotate(0 132.71172895769382 43.2209194740546)"><path d="M0.08 1.94 L268.94 -0.91 L267.67 86.8 L-3.19 85.98" stroke="none" stroke-width="0" fill="#a5d8ff"></path><path d="M1.93 -1.34 C91.66 0.74, 185.76 -5.17, 268.26 0.6 M0.9 0.74 C103.74 -4.44, 203.67 -3.42, 265.76 -1.37 M265.15 -2.91 C265.9 24.4, 262.26 59.73, 267.9 84.33 M266.06 -1.4 C267.02 28.01, 264.19 58.62, 266.46 86.79 M264.64 87.36 C202.41 87.83, 137.93 83.89, -1.49 89.27 M264.93 87.51 C160.26 87.47, 54.96 86.92, -0.52 86.77 M3.26 85.5 C-5.1 57.11, -2.75 37.54, 1.52 -0.61 M-0.26 85.48 C0.37 65.24, -0.58 45.6, 0.06 -1.07" stroke="#1e1e1e" stroke-width="2" fill="none"></path></g><g transform="translate(845.0867703021754 871.8924478212577) rotate(0 77.96992492675781 12.5)"><text x="77.96992492675781" y="17.52" font-family="Virgil, Segoe UI Emoji" font-size="20px" fill="#000" text-anchor="middle" style="white-space: pre;" direction="ltr" dominant-baseline="alphabetic">TemplateParser</text></g><g stroke-linecap="round" transform="translate(1144.2429101584228 10) rotate(0 132.71172895769382 43.22091947405454)"><path d="M3.52 -0.91 L267.67 0.36 L262.24 85.98 L-3.35 85.39" stroke="none" stroke-width="0" fill="#a5d8ff"></path><path d="M0.19 3.11 C97.4 -1.02, 192.01 2.38, 268.12 1.02 M1.5 -0.28 C105.12 -1.22, 212.24 -3.33, 265.85 -1.02 M267.01 -3.86 C263.26 27.82, 267.78 47.07, 266.79 87.12 M266.73 -0.87 C264.45 25.23, 267.01 49.11, 264.13 86.57 M264.81 87.73 C182.48 85.01, 103.42 90.5, 3.14 85.02 M266.27 85.96 C177.81 88.25, 86.56 89.6, -0.07 87.93 M-3.47 82.67 C-2.53 62.72, 0.11 33.95, -2.49 1.83 M1.16 85.8 C0.44 53.01, 0.28 17.95, 0.04 0.97" stroke="#1e1e1e" stroke-width="2" fill="none"></path></g><g transform="translate(1189.6147190721713 40.720919474054654) rotate(0 87.33992004394531 12.5)"><text x="87.33992004394531" y="17.52" font-family="Virgil, Segoe UI Emoji" font-size="20px" fill="#000" text-anchor="middle" style="white-space: pre;" direction="ltr" dominant-baseline="alphabetic">TemplateRenderer</text></g><g stroke-linecap="round" transform="translate(1144.2429101584228 841.1715283472032) rotate(0 132.71172895769382 43.2209194740546)"><path d="M2.25 0.36 L262.24 -0.47 L262.08 85.39 L0.19 85.83" stroke="none" stroke-width="0" fill="#a5d8ff"></path><path d="M2.81 -2.8 C71.24 -3.52, 139.5 -3.1, 268.56 1.79 M-0.83 0.74 C92.37 -0.63, 184.49 -0.28, 265.18 -0.11 M263.38 3.23 C268.58 17.53, 267.48 39.97, 264.71 87.72 M263.89 0.85 C267.58 20.21, 265.25 39.84, 265.47 85.95 M262.73 83.79 C176.58 90.99, 93.85 86.73, 1.14 85.46 M266.98 85.41 C167.34 85.49, 70.23 86.66, 0 87.73 M-1.13 88.66 C3.02 61.93, -0.99 40.46, 3.6 -0.52 M0.21 86.72 C-0.95 63.58, -0.96 43.84, 1.76 -0.46" stroke="#1e1e1e" stroke-width="2" fill="none"></path></g><g transform="translate(1189.6147190721713 871.8924478212577) rotate(0 87.33992004394531 12.5)"><text x="87.33992004394531" y="17.52" font-family="Virgil, Segoe UI Emoji" font-size="20px" fill="#000" text-anchor="middle" style="white-space: pre;" direction="ltr" dominant-baseline="alphabetic">TemplateRenderer</text></g><g stroke-linecap="round"><g transform="translate(142.7117289576938 96.44183894810931) rotate(0 0 372.36484469954706)"><path d="M1.43 0.3 C6.66 297.05, 6.89 593.97, 0.75 746.24 M0.17 -0.69 C-2.9 209.83, -3.24 420.64, -0.58 745.05" stroke="#999" stroke-width="1" fill="none"></path></g></g><mask></mask><g stroke-linecap="round"><g transform="translate(569.1587513417497 96.44183894810931) rotate(0 0 372.36484469954706)"><path d="M1.36 0.52 C6.92 158.44, 6.08 316.58, -0.28 743.89 M0.21 -0.51 C1.15 258.29, 0.7 517, -0.77 744.32" stroke="#999" stroke-width="1" fill="none"></path></g></g><mask></mask><g stroke-linecap="round"><g transform="translate(923.0566952289332 96.44183894810931) rotate(0 0 372.36484469954706)"><path d="M1.59 0.91 C5.82 239.07, 4.8 474.28, 0.75 745.07 M-0.12 -0.05 C1.02 159.36, 0.83 317.67, 0.65 745.22" stroke="#999" stroke-width="1" fill="none"></path></g></g><mask></mask><g stroke-linecap="round"><g transform="translate(1276.9546391161166 96.44183894810931) rotate(0 0 372.36484469954706)"><path d="M0.75 1.51 C5.63 246.61, 6.66 495.23, -1.38 745.16 M-0.58 0.32 C-1.7 175.11, -0.28 351.54, -0.42 745" stroke="#999" stroke-width="1" fill="none"></path></g></g><mask></mask><g mask="url(#mask-F9_afTh3CStUW4UH_EgEh)" stroke-linecap="round"><g transform="translate(145.36596353684763 149.63681676233023) rotate(0 207.91504203372028 0)"><path d="M2.65 -0.49 C71.44 -0.49, 345.4 1.63, 414.37 1.31 M0.64 -3.23 C70.23 -4.18, 350.92 -3.42, 419.98 -2.98" stroke="#1e1e1e" stroke-width="2" fill="none"></path></g><g transform="translate(145.36596353684763 149.63681676233023) rotate(0 207.91504203372028 0)"><path d="M396.1 4.43 C405.74 2.66, 411.47 -0.25, 418.69 -3.3 M395.49 4.96 C404.22 3.52, 409.78 0.76, 420.15 -3.16" stroke="#1e1e1e" stroke-width="2" fill="none"></path></g><g transform="translate(145.36596353684763 149.63681676233023) rotate(0 207.91504203372028 0)"><path d="M396.17 -12.67 C405.86 -8.34, 411.56 -5.15, 418.69 -3.3 M395.55 -12.14 C404.14 -8.57, 409.68 -6.31, 420.15 -3.16" stroke="#1e1e1e" stroke-width="2" fill="none"></path></g></g><mask id="mask-F9_afTh3CStUW4UH_EgEh"><rect x="0" y="0" fill="#fff" width="661.1960476042882" height="249.63681676233023"></rect><rect x="227.5510937663687" y="137.13681676233023" fill="#000" width="251.45982360839844" height="25" opacity="1"></rect></mask><g transform="translate(227.5510937663687 137.13681676233023) rotate(0 128.12239951521158 11.32991107472094)"><text x="125.72991180419922" y="17.52" font-family="Virgil, Segoe UI Emoji" font-size="20px" fill="#1e1e1e" text-anchor="middle" style="white-space: pre;" direction="ltr" dominant-baseline="alphabetic">template 이름과 data 전달</text></g><g mask="url(#mask-0wmK5ftffCeoKXAQJxBlh)" stroke-linecap="round"><g transform="translate(570.0434962014677 215.4656018074288) rotate(0 59.87104997024477 13.236845235616897)"><path d="M-1.46 1.31 C16.04 -1.11, 89.44 -21.3, 107.65 -15.05 C125.87 -8.81, 125.53 31.63, 107.81 38.76 C90.09 45.89, 19.35 29.36, 1.34 27.74 M2.94 -0.44 C19.88 -2.56, 88.5 -19.63, 105.74 -12.74 C122.99 -5.85, 123.75 33.73, 106.41 40.89 C89.06 48.06, 18.78 31.96, 1.68 30.24" stroke="#1e1e1e" stroke-width="2" fill="none"></path></g><g transform="translate(570.0434962014677 215.4656018074288) rotate(0 59.87104997024477 13.236845235616897)"><path d="M27.19 26.04 C14.82 27.85, 5.57 28.83, 1.55 28.79 M27.06 26.23 C17.33 27.4, 9.69 28.45, 2 29.54" stroke="#1e1e1e" stroke-width="2" fill="none"></path></g><g transform="translate(570.0434962014677 215.4656018074288) rotate(0 59.87104997024477 13.236845235616897)"><path d="M24.42 42.91 C13.17 38.08, 5.01 32.4, 1.55 28.79 M24.29 43.1 C15.67 38.56, 8.96 33.88, 2 29.54" stroke="#1e1e1e" stroke-width="2" fill="none"></path></g></g><mask id="mask-0wmK5ftffCeoKXAQJxBlh"><rect x="0" y="0" fill="#fff" width="777.0976242273407" height="368.66057962164984"></rect><rect x="596.2630428763445" y="204.78846431480588" fill="#000" width="185.65985107421875" height="50" opacity="1"></rect></mask><g transform="translate(596.2630428763443 204.78846431480588) rotate(0 33.65150329536817 23.91398272823983)"><text x="92.82992553710938" y="17.52" font-family="Virgil, Segoe UI Emoji" font-size="20px" fill="#1e1e1e" text-anchor="middle" style="white-space: pre;" direction="ltr" dominant-baseline="alphabetic">templates 폴더에서 </text><text x="92.82992553710938" y="42.519999999999996" font-family="Virgil, Segoe UI Emoji" font-size="20px" fill="#1e1e1e" text-anchor="middle" style="white-space: pre;" direction="ltr" dominant-baseline="alphabetic">template 읽기</text></g><g mask="url(#mask-tBvhzq7tMBVINZjfmW97G)" stroke-linecap="round"><g transform="translate(571.8129859209037 322.5204946585486) rotate(0 171.64050278528396 0)"><path d="M0.6 -2.42 C58.18 -2.94, 286.99 -2.17, 344.03 -1.8 M-2.52 2.44 C54.89 2.12, 284.98 0.79, 342.2 0.85" stroke="#1e1e1e" stroke-width="2" fill="none"></path></g><g transform="translate(571.8129859209037 322.5204946585486) rotate(0 171.64050278528396 0)"><path d="M317.01 10.01 C323.22 6.97, 330.19 3.69, 343 -1.08 M318.21 9.81 C324.68 7, 330.66 4.33, 342.85 0.41" stroke="#1e1e1e" stroke-width="2" fill="none"></path></g><g transform="translate(571.8129859209037 322.5204946585486) rotate(0 171.64050278528396 0)"><path d="M316.96 -7.09 C323.27 -5.89, 330.24 -4.93, 343 -1.08 M318.16 -7.29 C324.78 -5.85, 330.78 -4.26, 342.85 0.41" stroke="#1e1e1e" stroke-width="2" fill="none"></path></g></g><mask id="mask-tBvhzq7tMBVINZjfmW97G"><rect x="0" y="0" fill="#fff" width="1015.0939914914716" height="422.5204946585486"></rect><rect x="678.3535436378284" y="310.0204946585486" fill="#000" width="130.19989013671875" height="25" opacity="1"></rect></mask><g transform="translate(678.3535436378281 310.0204946585486) rotate(0 64.2170811993256 12.420920623059033)"><text x="65.09994506835938" y="17.52" font-family="Virgil, Segoe UI Emoji" font-size="20px" fill="#1e1e1e" text-anchor="middle" style="white-space: pre;" direction="ltr" dominant-baseline="alphabetic">template 전달</text></g><g mask="url(#mask-Rd-FcAgO86aHGypDSTwUW)" stroke-linecap="round"><g transform="translate(923.9414400886512 388.34927970364697) rotate(0 59.60671643422313 14.174750109937577)"><path d="M0.75 -1.8 C18.42 -3.53, 89.24 -20.07, 106.62 -12.82 C124 -5.58, 122.94 35.12, 105.02 41.67 C87.09 48.22, 15.9 28.5, -0.93 26.49 M-2.28 3.39 C14.92 2.34, 85.31 -14.86, 104.15 -9.3 C122.98 -3.74, 128.4 30.47, 110.74 36.74 C93.08 43.01, 16.35 29.19, -1.81 28.32" stroke="#1e1e1e" stroke-width="2" fill="none"></path></g><g transform="translate(923.9414400886512 388.34927970364697) rotate(0 59.60671643422313 14.174750109937577)"><path d="M21.23 22.25 C14.51 23.02, 7.62 24.4, -2.84 29.93 M22.69 22.38 C14 24.02, 5.53 26.38, -2.58 28.75" stroke="#1e1e1e" stroke-width="2" fill="none"></path></g><g transform="translate(923.9414400886512 388.34927970364697) rotate(0 59.60671643422313 14.174750109937577)"><path d="M19.24 39.23 C13.31 34.54, 7.06 30.46, -2.84 29.93 M20.7 39.36 C12.82 34.86, 5.07 31.06, -2.58 28.75" stroke="#1e1e1e" stroke-width="2" fill="none"></path></g></g><mask id="mask-Rd-FcAgO86aHGypDSTwUW"><rect x="0" y="0" fill="#fff" width="1130.9955681145243" height="541.544257517868"></rect><rect x="944.5722175724836" y="378.5286548419092" fill="#000" width="196.81983947753906" height="50" opacity="1"></rect></mask><g transform="translate(944.5722175724835 378.5286548419092) rotate(0 38.97593895039074 23.995374971675346)"><text x="98.40991973876953" y="17.52" font-family="Virgil, Segoe UI Emoji" font-size="20px" fill="#1e1e1e" text-anchor="middle" style="white-space: pre;" direction="ltr" dominant-baseline="alphabetic">template를 Element </text><text x="98.40991973876953" y="42.519999999999996" font-family="Virgil, Segoe UI Emoji" font-size="20px" fill="#1e1e1e" text-anchor="middle" style="white-space: pre;" direction="ltr" dominant-baseline="alphabetic">단위로 재귀적 분석</text></g><g mask="url(#mask-ojJGdlxfzOvQuVUuo8hbu)" stroke-linecap="round"><g transform="translate(920.4024606497793 495.4041725547668) rotate(0 -171.64050278528396 0)"><path d="M-0.43 -0.19 C-58.11 0.3, -287.73 1.32, -345.32 1.11 M-4.11 -2.76 C-60.98 -2.97, -283.94 -3.91, -340.02 -3.3" stroke="#1e1e1e" stroke-width="2" fill="none"></path></g><g transform="translate(920.4024606497793 495.4041725547668) rotate(0 -171.64050278528396 0)"><path d="M-316.68 -13.36 C-323.48 -11.05, -332.97 -4.7, -338.78 -4.35 M-316.23 -12.6 C-323.73 -9.5, -332.99 -5.77, -339.5 -3.12" stroke="#1e1e1e" stroke-width="2" fill="none"></path></g><g transform="translate(920.4024606497793 495.4041725547668) rotate(0 -171.64050278528396 0)"><path d="M-316.65 3.75 C-323.35 0.46, -332.85 1.22, -338.78 -4.35 M-316.19 4.5 C-323.73 1.88, -333 -0.1, -339.5 -3.12" stroke="#1e1e1e" stroke-width="2" fill="none"></path></g></g><mask id="mask-ojJGdlxfzOvQuVUuo8hbu"><rect x="0" y="0" fill="#fff" width="1363.6834662203473" height="595.4041725547668"></rect><rect x="663.4720256135189" y="482.9041725547668" fill="#000" width="170.57986450195312" height="25" opacity="1"></rect></mask><g transform="translate(663.4720256135188 482.9041725547668) rotate(0 84.05447535850107 11.318305675918168)"><text x="85.28993225097656" y="17.52" font-family="Virgil, Segoe UI Emoji" font-size="20px" fill="#1e1e1e" text-anchor="middle" style="white-space: pre;" direction="ltr" dominant-baseline="alphabetic">root Element 반환</text></g><g mask="url(#mask-dnsZWGGTYVQpHDj-Yf4Hb)" stroke-linecap="round"><g transform="translate(571.8129859209037 561.897894822543) rotate(0 348.58947472887564 0)"><path d="M-2.04 1.11 C113.78 0.9, 577.57 -1.54, 694.48 -1.43 M2.05 -0.76 C118.73 -0.59, 583.28 1.77, 699.42 1.42" stroke="#1e1e1e" stroke-width="2" fill="none"></path></g><g transform="translate(571.8129859209037 561.897894822543) rotate(0 348.58947472887564 0)"><path d="M676.7 8 C681.58 9.29, 690.53 4.2, 700.1 1.76 M676.56 9.49 C681.75 8.12, 689.66 5.47, 698.77 1.48" stroke="#1e1e1e" stroke-width="2" fill="none"></path></g><g transform="translate(571.8129859209037 561.897894822543) rotate(0 348.58947472887564 0)"><path d="M676.73 -9.1 C681.59 -2.94, 690.53 -3.17, 700.1 1.76 M676.59 -7.61 C681.82 -4.16, 689.73 -1.98, 698.77 1.48" stroke="#1e1e1e" stroke-width="2" fill="none"></path></g></g><mask id="mask-dnsZWGGTYVQpHDj-Yf4Hb"><rect x="0" y="0" fill="#fff" width="1368.991935378655" height="661.897894822543"></rect><rect x="796.7825494559315" y="549.397894822543" fill="#000" width="247.2398223876953" height="25" opacity="1"></rect></mask><g transform="translate(796.7825494559315 549.397894822543) rotate(0 123.72053939882665 12.508438795872337)"><text x="123.61991119384766" y="17.52" font-family="Virgil, Segoe UI Emoji" font-size="20px" fill="#1e1e1e" text-anchor="middle" style="white-space: pre;" direction="ltr" dominant-baseline="alphabetic">root Element와 data 전달</text></g><g mask="url(#mask-r-Y3CPOCZiWaUle4A22cA)" stroke-linecap="round"><g transform="translate(1277.8393839758346 627.7266798676416) rotate(0 59.17799272783168 13.520475413818701)"><path d="M-2.7 -1.43 C15.86 -3.44, 91.27 -18.06, 109.31 -10.9 C127.36 -3.74, 123.42 35.13, 105.58 41.52 C87.73 47.91, 19.4 30.02, 2.25 27.42 M1.03 3.96 C19.6 1.06, 91.31 -20.4, 108.3 -14.97 C125.29 -9.55, 120.5 29.05, 102.97 36.51 C85.43 43.96, 20.3 31.54, 3.09 29.76" stroke="#1e1e1e" stroke-width="2" fill="none"></path></g><g transform="translate(1277.8393839758346 627.7266798676416) rotate(0 59.17799272783168 13.520475413818701)"><path d="M26.52 26.19 C23.25 24.46, 17.13 27.04, 2.73 30.4 M26.78 25 C22.48 25.84, 15.69 26.91, 3.11 29.51" stroke="#1e1e1e" stroke-width="2" fill="none"></path></g><g transform="translate(1277.8393839758346 627.7266798676416) rotate(0 59.17799272783168 13.520475413818701)"><path d="M24.13 43.12 C21.33 37.57, 15.76 36.3, 2.73 30.4 M24.39 41.94 C20.53 38.89, 14.29 36.08, 3.11 29.51" stroke="#1e1e1e" stroke-width="2" fill="none"></path></g></g><mask id="mask-r-Y3CPOCZiWaUle4A22cA"><rect x="0" y="0" fill="#fff" width="1484.8935120017077" height="780.9216576818626"></rect><rect x="1298.4460020591835" y="619.0365122164712" fill="#000" width="200.4598846435547" height="50" opacity="1"></rect></mask><g transform="translate(1298.4460020591832 619.0365122164712) rotate(0 38.57137464448306 22.21064306498903)"><text x="100.22994232177734" y="17.52" font-family="Virgil, Segoe UI Emoji" font-size="20px" fill="#1e1e1e" text-anchor="middle" style="white-space: pre;" direction="ltr" dominant-baseline="alphabetic">data를 적용하여 화면 </text><text x="100.22994232177734" y="42.519999999999996" font-family="Virgil, Segoe UI Emoji" font-size="20px" fill="#1e1e1e" text-anchor="middle" style="white-space: pre;" direction="ltr" dominant-baseline="alphabetic">생성</text></g><g mask="url(#mask-V63doL4C_iUHmkoVIosLr)" stroke-linecap="round"><g transform="translate(1274.3004045369628 734.7815727187613) rotate(0 -348.58947472887564 0)"><path d="M2.26 1.73 C-113.74 2.13, -582.16 1.33, -698.66 0.96 M0.04 0.2 C-114.78 -0.14, -576.68 -3.89, -693.06 -3.53" stroke="#1e1e1e" stroke-width="2" fill="none"></path></g><g transform="translate(1274.3004045369628 734.7815727187613) rotate(0 -348.58947472887564 0)"><path d="M-668.3 -13.06 C-673.69 -9.75, -679.52 -7.73, -694.46 -2.23 M-669.02 -11.83 C-676.28 -9.67, -681.64 -7.81, -692.77 -3.73" stroke="#1e1e1e" stroke-width="2" fill="none"></path></g><g transform="translate(1274.3004045369628 734.7815727187613) rotate(0 -348.58947472887564 0)"><path d="M-668.36 4.04 C-673.64 3.87, -679.46 2.41, -694.46 -2.23 M-669.08 5.27 C-676.19 3.04, -681.53 0.52, -692.77 -3.73" stroke="#1e1e1e" stroke-width="2" fill="none"></path></g></g><mask id="mask-V63doL4C_iUHmkoVIosLr"><rect x="0" y="0" fill="#fff" width="2071.479353994714" height="834.7815727187613"></rect><rect x="855.1609725326966" y="722.2815727187613" fill="#000" width="141.09991455078125" height="25" opacity="1"></rect></mask><g transform="translate(855.1609725326966 722.2815727187613) rotate(0 70.93943635560572 11.641349912726639)"><text x="70.54995727539062" y="17.52" font-family="Virgil, Segoe UI Emoji" font-size="20px" fill="#1e1e1e" text-anchor="middle" style="white-space: pre;" direction="ltr" dominant-baseline="alphabetic">생성된 화면 반환</text></g><g mask="url(#mask-WZ6Xbm2P2WCd59zd_8fTO)" stroke-linecap="round"><g transform="translate(566.5045167625959 801.2752949865376) rotate(0 -207.91504203372025 0)"><path d="M-1.48 0.96 C-71.08 0.58, -346.44 -0.02, -415.35 -0.5 M2.91 -0.99 C-67.22 -1.08, -347.47 2.68, -417.33 2.85" stroke="#1e1e1e" stroke-width="2" fill="none"></path></g><g transform="translate(566.5045167625959 801.2752949865376) rotate(0 -207.91504203372025 0)"><path d="M-393.23 -5.56 C-403.13 -2.05, -413.09 1.94, -418.2 1.32 M-394.56 -5.84 C-401.87 -3.11, -409.62 -0.05, -416.92 2" stroke="#1e1e1e" stroke-width="2" fill="none"></path></g><g transform="translate(566.5045167625959 801.2752949865376) rotate(0 -207.91504203372025 0)"><path d="M-393.08 11.54 C-403.15 8.54, -413.16 6.02, -418.2 1.32 M-394.42 11.26 C-401.86 8.14, -409.66 5.33, -416.92 2" stroke="#1e1e1e" stroke-width="2" fill="none"></path></g></g><mask id="mask-WZ6Xbm2P2WCd59zd_8fTO"><rect x="0" y="0" fill="#fff" width="1082.3346008300364" height="901.2752949865376"></rect><rect x="296.6895113499694" y="788.7752949865376" fill="#000" width="123.7999267578125" height="25" opacity="1"></rect></mask><g transform="translate(296.68951134996945 788.7752949865376) rotate(0 62.606633028090016 13.42979816029623)"><text x="61.89996337890625" y="17.52" font-family="Virgil, Segoe UI Emoji" font-size="20px" fill="#1e1e1e" text-anchor="middle" style="white-space: pre;" direction="ltr" dominant-baseline="alphabetic">최종 결과 반환</text></g></svg>